<?xml version="1.0" encoding="utf-8"?><svg viewBox="0 0 192 84" xmlns="http://www.w3.org/2000/svg" xmlns:xlink="http://www.w3.org/1999/xlink"><style>:root>svg{display:none}:root>svg:target{display:block}</style><svg fill="none" viewBox="0 0 91 71" id="1" xmlns="http://www.w3.org/2000/svg"><path d="M28.857 70.152c-5.505 0-10.433-1.344-14.784-4.032C9.72 63.368 6.295 59.4 3.8 54.216 1.305 49.032.057 42.76.057 35.4c0-7.36 1.248-13.632 3.744-18.816C6.296 11.4 9.72 7.464 14.072 4.776 18.425 2.024 23.352.648 28.858.648c5.568 0 10.495 1.376 14.784 4.128 4.352 2.688 7.776 6.624 10.272 11.808 2.495 5.184 3.744 11.456 3.744 18.816 0 7.36-1.248 13.632-3.744 18.816-2.496 5.184-5.92 9.152-10.272 11.904-4.288 2.688-9.216 4.032-14.784 4.032Zm0-13.152c2.623 0 4.895-.736 6.816-2.208 1.983-1.472 3.52-3.808 4.608-7.008 1.151-3.2 1.727-7.328 1.727-12.384s-.576-9.184-1.727-12.384c-1.088-3.2-2.624-5.536-4.608-7.008-1.92-1.472-4.193-2.208-6.817-2.208-2.56 0-4.832.736-6.816 2.208-1.92 1.472-3.456 3.808-4.607 7.008-1.088 3.2-1.633 7.328-1.633 12.384s.544 9.184 1.633 12.384c1.151 3.2 2.688 5.536 4.608 7.008C24.024 56.264 26.297 57 28.857 57Zm46.349 12V7.56l6.72 6.72h-20.16V1.8h28.992V69H75.206Z" fill="#E4E4E4"/></svg><svg fill="none" viewBox="0 0 116 71" id="2" xmlns="http://www.w3.org/2000/svg"><path d="M28.84 70.152c-5.503 0-10.431-1.344-14.783-4.032C9.705 63.368 6.28 59.4 3.785 54.216 1.289 49.032.04 42.76.04 35.4c0-7.36 1.248-13.632 3.744-18.816C6.28 11.4 9.705 7.464 14.057 4.776 18.409 2.024 23.337.648 28.84.648c5.568 0 10.496 1.376 14.784 4.128C47.977 7.464 51.4 11.4 53.897 16.584 56.393 21.768 57.64 28.04 57.64 35.4c0 7.36-1.248 13.632-3.744 18.816-2.496 5.184-5.92 9.152-10.272 11.904-4.288 2.688-9.216 4.032-14.784 4.032Zm0-13.152c2.625 0 4.897-.736 6.817-2.208 1.984-1.472 3.52-3.808 4.608-7.008 1.152-3.2 1.728-7.328 1.728-12.384s-.576-9.184-1.728-12.384c-1.088-3.2-2.624-5.536-4.608-7.008-1.92-1.472-4.192-2.208-6.816-2.208-2.56 0-4.832.736-6.816 2.208-1.92 1.472-3.456 3.808-4.608 7.008-1.088 3.2-1.632 7.328-1.632 12.384s.544 9.184 1.632 12.384c1.152 3.2 2.688 5.536 4.608 7.008C24.009 56.264 26.28 57 28.84 57Zm35.406 12V58.92l25.92-24.48c2.048-1.856 3.552-3.52 4.512-4.992.96-1.472 1.6-2.816 1.92-4.032.384-1.216.576-2.336.576-3.36 0-2.688-.928-4.736-2.784-6.144-1.792-1.472-4.448-2.208-7.968-2.208-2.816 0-5.44.544-7.872 1.632-2.368 1.088-4.384 2.784-6.048 5.088l-11.328-7.296c2.56-3.84 6.144-6.88 10.752-9.12 4.608-2.24 9.92-3.36 15.936-3.36 4.992 0 9.344.832 13.056 2.496 3.776 1.6 6.688 3.872 8.736 6.816 2.112 2.944 3.168 6.464 3.168 10.56 0 2.176-.288 4.352-.864 6.528-.512 2.112-1.6 4.352-3.264 6.72-1.6 2.368-3.968 5.024-7.104 7.968L80.086 61.992l-2.976-5.664h37.92V69H64.246Z" fill="#E4E4E4"/></svg><svg fill="none" viewBox="0 0 115 71" id="3" xmlns="http://www.w3.org/2000/svg"><path d="M29.028 70.152c-5.504 0-10.432-1.344-14.784-4.032-4.352-2.752-7.776-6.72-10.272-11.904C1.476 49.032.228 42.76.228 35.4c0-7.36 1.248-13.632 3.744-18.816 2.496-5.184 5.92-9.12 10.272-11.808C18.596 2.024 23.524.648 29.028.648c5.568 0 10.496 1.376 14.784 4.128 4.352 2.688 7.776 6.624 10.272 11.808 2.496 5.184 3.744 11.456 3.744 18.816 0 7.36-1.248 13.632-3.744 18.816-2.496 5.184-5.92 9.152-10.272 11.904-4.288 2.688-9.216 4.032-14.784 4.032Zm0-13.152c2.624 0 4.896-.736 6.816-2.208 1.984-1.472 3.52-3.808 4.608-7.008 1.152-3.2 1.728-7.328 1.728-12.384s-.576-9.184-1.728-12.384c-1.088-3.2-2.624-5.536-4.608-7.008-1.92-1.472-4.192-2.208-6.816-2.208-2.56 0-4.832.736-6.816 2.208-1.92 1.472-3.456 3.808-4.608 7.008-1.088 3.2-1.632 7.328-1.632 12.384s.544 9.184 1.632 12.384c1.152 3.2 2.688 5.536 4.608 7.008C24.196 56.264 26.468 57 29.028 57ZM86.24 70.152c-4.672 0-9.312-.608-13.92-1.824-4.608-1.28-8.512-3.072-11.712-5.376l6.048-11.904c2.56 1.856 5.536 3.328 8.928 4.416 3.392 1.088 6.816 1.632 10.272 1.632 3.904 0 6.976-.768 9.216-2.304 2.24-1.536 3.36-3.648 3.36-6.336 0-2.56-.992-4.576-2.976-6.048-1.984-1.472-5.184-2.208-9.6-2.208h-7.104V29.928l18.72-21.216L99.2 14.28H63.967V1.8h47.04v10.08L92.383 33.096l-7.872-4.512h4.512c8.256 0 14.496 1.856 18.72 5.568 4.224 3.712 6.336 8.48 6.336 14.304 0 3.776-.992 7.328-2.976 10.656-1.984 3.264-5.024 5.92-9.12 7.968-4.096 2.048-9.344 3.072-15.744 3.072Z" fill="#E4E4E4"/></svg><svg fill="none" viewBox="0 0 127 71" id="4" xmlns="http://www.w3.org/2000/svg"><path d="M28.872 70.152c-5.504 0-10.432-1.344-14.784-4.032-4.352-2.752-7.776-6.72-10.272-11.904C1.32 49.032.072 42.76.072 35.4c0-7.36 1.248-13.632 3.744-18.816 2.496-5.184 5.92-9.12 10.272-11.808C18.44 2.024 23.368.648 28.872.648c5.568 0 10.496 1.376 14.784 4.128 4.352 2.688 7.776 6.624 10.272 11.808 2.496 5.184 3.744 11.456 3.744 18.816 0 7.36-1.248 13.632-3.744 18.816-2.496 5.184-5.92 9.152-10.272 11.904-4.288 2.688-9.216 4.032-14.784 4.032Zm0-13.152c2.624 0 4.896-.736 6.816-2.208 1.984-1.472 3.52-3.808 4.608-7.008 1.152-3.2 1.728-7.328 1.728-12.384s-.576-9.184-1.728-12.384c-1.088-3.2-2.624-5.536-4.608-7.008-1.92-1.472-4.192-2.208-6.816-2.208-2.56 0-4.832.736-6.816 2.208-1.92 1.472-3.456 3.808-4.608 7.008-1.088 3.2-1.632 7.328-1.632 12.384s.544 9.184 1.632 12.384c1.152 3.2 2.688 5.536 4.608 7.008C24.04 56.264 26.312 57 28.872 57Zm35.588-2.112V44.424L96.14 1.8h16.32L81.452 44.424l-7.584-2.208h52.896v12.672H64.46ZM100.652 69V54.888l.48-12.672V29.64h14.688V69h-15.168Z" fill="#E4E4E4"/></svg><svg fill="none" viewBox="0 0 40 41" id="adv-1" xmlns="http://www.w3.org/2000/svg"><path d="M37.961 9.28c-5.874-.6-7.592-3.919-7.672-4.079-.2-.4-.6-.64-.999-.64-.44 0-.839.24-1.039.68 0 .04-1.678 3.48-7.632 4.08-.56.04-.999.56-.999 1.119v6.118c0 1.8.56 3.48 1.359 4.92h1.758c2.118 0 3.876 1.759 3.876 3.878 0 .64-.12 1.2-.4 1.72 1.359 1 2.478 1.56 2.598 1.64.16.08.32.12.52.12.159 0 .359-.04.519-.12.36-.2 9.15-4.8 9.15-12.158V10.4c-.04-.56-.48-1.08-1.039-1.12Zm-4.195 5.599-4.915 4.959c-.24.2-.52.32-.8.32s-.599-.12-.799-.32l-2.477-2.48c-.44-.44-.44-1.16 0-1.6.44-.44 1.159-.44 1.598 0l1.639 1.64 4.155-4.159c.44-.44 1.159-.44 1.599 0 .479.48.479 1.2 0 1.64Z" fill="#828282"/><path d="M24.336 25.317c0-.88-.72-1.6-1.599-1.6s-5.314.04-6.233.04c-.48 0-.84-.48-.68-.96.48-1.44 1.32-4.039 1.479-4.839.36-2-2.717-2.599-3.317-1.04-.599 1.44-2.877 5.92-5.554 7.559-.32.2-.52.56-.52.92v9.077c0 .52 2.159 2.08 5.155 2.08h8.471c.88 0 1.599-.72 1.599-1.6 0-.76-.52-1.36-1.199-1.56-.04 0-.04-.04 0-.04.88 0 1.598-.72 1.598-1.6 0-.759-.52-1.399-1.198-1.559-.04 0-.04-.04 0-.04.879 0 1.598-.72 1.598-1.6 0-.76-.52-1.399-1.199-1.559-.04 0-.04-.04 0-.04.88-.04 1.599-.76 1.599-1.64ZM4.596 24.236H2a.99.99 0 0 0-.999 1v9.558c0 .56.44 1 .999 1h2.597a.99.99 0 0 0 1-1v-9.558c0-.56-.44-1-1-1Z" fill="#828282"/></svg><svg fill="none" viewBox="0 0 40 41" id="adv-2" xmlns="http://www.w3.org/2000/svg"><path d="M26.495 20.341H13.86a.948.948 0 0 0-.948.95v17.82h14.533V21.29a.95.95 0 0 0-.949-.95ZM26.84 8.748l-3.943-.623-1.723-3.87a1.09 1.09 0 0 0-.997-.602c-.332 0-.643.166-.871.582l-1.807 3.808-3.944.52c-.85.124-1.225 1.163-.602 1.765l2.823 2.826-.727 3.927c-.166.851.727 1.517 1.495 1.122l3.55-1.808.083.041 3.425 1.85c.748.415 1.661-.209 1.516-1.06l-.623-3.948 2.885-2.763c.645-.583.312-1.642-.54-1.767ZM10.005 18.892l-2.502-.395-1.094-2.454a.693.693 0 0 0-.632-.382c-.21 0-.408.106-.553.368L4.08 18.445l-2.501.33c-.54.08-.777.737-.382 1.12l1.791 1.791-.46 2.491a.66.66 0 0 0 .948.711l2.25-1.146.053.026 2.173 1.173c.473.264 1.053-.131.96-.671l-.395-2.503 1.83-1.753a.649.649 0 0 0-.341-1.122ZM38.147 22.09l-2.152-.34-.94-2.11a.593.593 0 0 0-.543-.33c-.181 0-.351.091-.476.318l-.985 2.077-2.151.283c-.464.069-.668.635-.328.964l1.54 1.541-.397 2.141a.567.567 0 0 0 .815.613l1.936-.986.046.022 1.868 1.008c.409.227.906-.114.827-.578l-.34-2.153 1.574-1.507a.557.557 0 0 0-.294-.963ZM9.379 26.575H2.302a.948.948 0 0 0-.948.949v11.587h8.973V27.524a.948.948 0 0 0-.948-.949ZM38.053 28.652h-7.078a.948.948 0 0 0-.948.95v9.509H39V29.6a.948.948 0 0 0-.947-.949Z" fill="#828282"/></svg><svg fill="none" viewBox="0 0 40 41" id="adv-3" xmlns="http://www.w3.org/2000/svg"><path d="M37.17 19.042a2.307 2.307 0 0 0-1.245.07 14.12 14.12 0 0 0-4.58-7.128 5.138 5.138 0 0 1 .819-3.854 1.03 1.03 0 0 0-.298-1.38 1.026 1.026 0 0 0-.738-.172c-2.617.338-4.117 1.552-4.959 2.662a14.057 14.057 0 0 0-3.012-.505.24.24 0 0 0-.055 0 12.543 12.543 0 0 1-4.107 14.176 12.525 12.525 0 0 1-14.741.442.337.337 0 0 0-.024.137 14.082 14.082 0 0 0 4.692 9.86 4.504 4.504 0 0 1 1.551 3.352v1.661c0 .51.413.924.923.924h5.61c.51 0 .924-.414.924-.924v-1.431h4.459v1.424c0 .51.413.923.923.923h5.63c.51 0 .923-.413.923-.923V37.09a4.59 4.59 0 0 1 1.574-3.492 14.116 14.116 0 0 0 4.497-7.106c.401.135.832.158 1.245.066A2.398 2.398 0 0 0 39 24.192v-2.77a2.408 2.408 0 0 0-1.83-2.38Zm-6.907.244a1.391 1.391 0 0 1-1.392-1.393 1.395 1.395 0 0 1 1.392-1.393 1.393 1.393 0 0 1 1.392 1.393 1.393 1.393 0 0 1-1.392 1.402v-.009Zm-18.957 4.025c2.733 0 5.354-1.087 7.287-3.02a10.322 10.322 0 0 0 .002-14.587 10.302 10.302 0 0 0-14.574-.003 10.317 10.317 0 0 0-3.02 7.292 10.333 10.333 0 0 0 3.02 7.292 10.316 10.316 0 0 0 7.285 3.026ZM10.45 7.734v-.776a.823.823 0 1 1 1.644 0v.655a7.195 7.195 0 0 1 1.551.222.974.974 0 0 1-.248 1.913.942.942 0 0 1-.267-.038 5.133 5.133 0 0 0-1.485-.214c-1.09 0-1.442.47-1.442.94 0 .554.589.908 2.012 1.443 1.997.706 2.803 1.63 2.803 3.143s-1.058 2.77-2.99 3.104v.916a.822.822 0 1 1-1.643 0v-.776a7.75 7.75 0 0 1-2.016-.388.974.974 0 0 1-.644-1.164l.019-.082a.95.95 0 0 1 .923-.694c.11 0 .218.019.322.055a5.638 5.638 0 0 0 1.815.31c.957 0 1.613-.388 1.613-1.04s-.54-1.04-1.78-1.463c-1.795-.605-3.02-1.443-3.02-3.073-.001-1.48 1.038-2.64 2.833-2.993Z" fill="#828282"/></svg><svg fill="none" viewBox="0 0 16 16" id="arr-l" xmlns="http://www.w3.org/2000/svg"><path d="M10.667 14.933 3.2 8l7.467-6.933" stroke="#3D3D3D" stroke-linecap="square"/></svg><svg fill="none" viewBox="0 0 16 16" id="arr-r" xmlns="http://www.w3.org/2000/svg"><path d="M5.333 14.933 12.8 8 5.333 1.067" stroke="#3D3D3D" stroke-linecap="square"/></svg><svg fill="none" viewBox="0 0 56 56" id="arrow-file" xmlns="http://www.w3.org/2000/svg"><g clip-path="url(#aja)" fill="#828282"><path d="M28.003 42.704c.786 0 1.424-.638 1.424-1.424V17.495l6.925 5.01A1.424 1.424 0 0 0 38.02 20.2l-9.184-6.643a1.418 1.418 0 0 0-1.667 0l-9.182 6.643a1.422 1.422 0 0 0 1.668 2.304l6.924-5.008V41.28a1.425 1.425 0 0 0 1.424 1.424Z"/><path d="M28.003 0a27.802 27.802 0 0 0-16.27 5.22 1.427 1.427 0 0 0 .562 2.63c.394.048.79-.069 1.094-.324a25.13 25.13 0 1 1-6.582 6.927 1.424 1.424 0 0 0-2.4-1.534 28.006 28.006 0 0 0 3.134 34.197 27.997 27.997 0 0 0 46.14-7.962A28 28 0 0 0 28.003.001Z"/></g><defs><clipPath id="aja"><path fill="#fff" d="M0 0h55.998v56H0z"/></clipPath></defs></svg><svg fill="none" viewBox="0 0 24 24" id="b-list" xmlns="http://www.w3.org/2000/svg"><path fill-rule="evenodd" clip-rule="evenodd" d="M0 12C0 5.373 5.373 0 12 0s12 5.373 12 12-5.373 12-12 12S0 18.627 0 12Zm13.6-4.331 4.332 4.33-4.332 4.332L12.47 15.2l2.4-2.4H6.4v-1.6h8.469l-2.4-2.4L13.6 7.669Z" fill="#0075FF"/></svg><svg fill="none" viewBox="0 0 30 28" id="coc" xmlns="http://www.w3.org/2000/svg"><path d="M15.676 6.509a1.621 1.621 0 1 1-3.243 0 1.621 1.621 0 0 1 3.243 0ZM15.473 22.968a12.412 12.412 0 0 1-2.843-1.558 1.622 1.622 0 0 0 1.425 2.395 1.632 1.632 0 0 0 1.418-.837Z" fill="#0075FF"/><path d="M14.054 24.886a2.702 2.702 0 0 1-2.277-4.159 12.45 12.45 0 0 1-3.863-6.26 2.703 2.703 0 1 1-.218-5.17c.29-1.723.941-3.364 1.914-4.815A11.33 11.33 0 0 0 .001 15.697c0 6.259 5.092 11.35 11.35 11.35 2.98.005 5.84-1.166 7.96-3.258-.95-.05-1.89-.209-2.804-.474a2.724 2.724 0 0 1-2.453 1.57ZM.542 15.156a1.622 1.622 0 1 1 3.244.002 1.622 1.622 0 0 1-3.244-.001Zm4.324 7.568a2.705 2.705 0 0 1-2.703-2.703 2.704 2.704 0 0 1 4.614-1.91 2.705 2.705 0 0 1 0 3.822 2.703 2.703 0 0 1-1.911.79Zm4.324 2.702a1.622 1.622 0 1 1 0-3.244 1.622 1.622 0 0 1 0 3.244Z" fill="#0075FF"/><path d="M7.027 10.292a1.622 1.622 0 1 0 .661 3.101 12.434 12.434 0 0 1-.126-3.01 1.652 1.652 0 0 0-.535-.09ZM2.704 15.157a.54.54 0 1 1-1.082 0 .54.54 0 0 1 1.082 0ZM26.485 11.914c.186.001.37-.022.55-.067a9.865 9.865 0 0 1-.05-.753V10.627c.01-.476.056-.95.139-1.419h-.007a8.918 8.918 0 0 1-.288-.02l-.098-.008a11.245 11.245 0 0 1-.203-.022l-.102-.013c-.079-.011-.158-.023-.236-.036l-.055-.008a7.09 7.09 0 0 1-.282-.055l-.081-.018a5.532 5.532 0 0 1-.211-.05l-.08-.02a7.385 7.385 0 0 1-.26-.074l-.014-.004a7.027 7.027 0 0 1-.291-.096l-.02-.007c-.09-.032-.177-.067-.264-.1l-.015-.006a2.161 2.161 0 0 0 1.868 3.243ZM9.73 23.805a.54.54 0 1 1-1.081 0 .54.54 0 0 1 1.081 0ZM6.487 20.021a1.621 1.621 0 1 1-3.242 0 1.621 1.621 0 0 1 3.242 0ZM20.54 8.67a.54.54 0 1 1-1.082 0 .54.54 0 0 1 1.082 0ZM19.459 18.94a.54.54 0 1 1-1.081 0 .54.54 0 0 1 1.081 0ZM25.405 16.238a1.621 1.621 0 1 1-3.243 0 1.621 1.621 0 0 1 3.243 0ZM17.837 12.995a.54.54 0 1 1-1.081 0 .54.54 0 0 1 1.081 0Z" fill="#0075FF"/><path d="M27.212 12.912a3.243 3.243 0 0 1-3.56-4.735 6.882 6.882 0 0 1-.144-.092c-.917-.608-1.537-1.399-1.795-2.271a4.863 4.863 0 0 1-6.08-4.71c0-.078 0-.154.005-.231a11.306 11.306 0 0 0-4.39 3.21.548.548 0 0 1-.123.15 11.312 11.312 0 0 0-2.447 5.885v.018a11.51 11.51 0 0 0-.068 1.238c0 6.258 5.092 11.35 11.35 11.35A11.374 11.374 0 0 0 30 16.663c-1.303-.406-2.347-1.833-2.788-3.751Zm-7.213-5.863a1.622 1.622 0 1 1 0 3.245 1.622 1.622 0 0 1 0-3.245Zm-5.945-3.242a2.705 2.705 0 0 1 2.702 2.702 2.705 2.705 0 0 1-2.702 2.702 2.705 2.705 0 0 1-2.702-2.702 2.705 2.705 0 0 1 2.702-2.702Zm-2.162 12.43a2.705 2.705 0 0 1-2.702-2.702 2.705 2.705 0 0 1 2.702-2.702 2.705 2.705 0 0 1 2.703 2.702 2.705 2.705 0 0 1-2.703 2.703Zm3.784-3.242a1.622 1.622 0 1 1 3.243 0 1.622 1.622 0 0 1-3.244 0Zm3.242 7.567a1.622 1.622 0 1 1 .001-3.244 1.622 1.622 0 0 1 0 3.244Zm4.865-1.622a2.705 2.705 0 0 1-2.703-2.702 2.704 2.704 0 0 1 2.703-2.703 2.705 2.705 0 0 1 2.702 2.703 2.705 2.705 0 0 1-2.702 2.702Z" fill="#0075FF"/><path d="M13.514 13.535a1.621 1.621 0 1 1-3.243 0 1.621 1.621 0 0 1 3.243 0Z" fill="#0075FF"/></svg><svg fill="none" viewBox="0 0 24 24" id="facebook" xmlns="http://www.w3.org/2000/svg"><path d="M20.643 1H3.357A2.357 2.357 0 0 0 1 3.357v17.286A2.357 2.357 0 0 0 3.357 23h6.74v-7.48H7.003V12h3.094V9.317c0-3.052 1.817-4.738 4.6-4.738 1.333 0 2.726.238 2.726.238v2.995h-1.535c-1.513 0-1.985.94-1.985 1.902V12h3.377l-.54 3.52h-2.837V23h6.74A2.357 2.357 0 0 0 23 20.643V3.357A2.357 2.357 0 0 0 20.643 1Z" fill="#3D3D3D"/></svg><svg fill="none" viewBox="0 0 8 14" id="foot-arr" xmlns="http://www.w3.org/2000/svg"><path d="M1.175 13.325a.613.613 0 0 1-.4-.15.558.558 0 0 1 0-.8L6.025 7 .775 1.65a.558.558 0 0 1 0-.8.558.558 0 0 1 .8 0l5.65 5.75a.558.558 0 0 1 0 .8l-5.65 5.75a.59.59 0 0 1-.4.175Z" fill="#828282"/></svg><svg fill="none" viewBox="0 0 24 24" id="insta" xmlns="http://www.w3.org/2000/svg"><path d="M12 8.333a3.667 3.667 0 1 0 0 7.334 3.667 3.667 0 0 0 0-7.334Z" fill="#3D3D3D"/><path fill-rule="evenodd" clip-rule="evenodd" d="M7.6 1A6.6 6.6 0 0 0 1 7.6v8.8A6.6 6.6 0 0 0 7.6 23h8.8a6.6 6.6 0 0 0 6.6-6.6V7.6A6.6 6.6 0 0 0 16.4 1H7.6Zm-.733 11a5.133 5.133 0 1 1 10.266 0 5.133 5.133 0 0 1-10.266 0Zm10.266-5.133H18.6V5.4h-1.467v1.467Z" fill="#3D3D3D"/></svg><svg fill="none" viewBox="0 0 192 84" id="logo" xmlns="http://www.w3.org/2000/svg"><path d="M32.475 61.272c-2.15 0-3.88-.276-5.188-.827v-2.48c.74.275 1.531.499 2.375.671.86.172 1.712.258 2.555.258 1.326 0 2.315-.155 2.97-.465.67-.31 1.006-.93 1.006-1.86 0-.569-.138-1.025-.413-1.37-.276-.344-.732-.637-1.368-.878-.637-.259-1.515-.526-2.633-.801-1.79-.466-3.047-1.051-3.77-1.758-.722-.723-1.084-1.714-1.084-2.971 0-1.465.534-2.61 1.6-3.437 1.068-.827 2.66-1.24 4.777-1.24.963 0 1.867.068 2.71.206.86.138 1.532.293 2.014.465v2.48c-1.308-.499-2.754-.748-4.337-.748-1.24 0-2.203.163-2.891.49-.689.328-1.033.922-1.033 1.784 0 .5.12.904.361 1.214.241.31.654.577 1.24.801.602.224 1.428.474 2.478.75 1.36.344 2.41.758 3.15 1.24.756.465 1.281 1.016 1.574 1.654.31.62.465 1.326.465 2.119 0 1.464-.543 2.618-1.627 3.462-1.084.827-2.728 1.24-4.93 1.24ZM41.76 61.013V48.765h2.582l.13 1.292a7.355 7.355 0 0 1 1.987-1.137 6.466 6.466 0 0 1 2.324-.414c.877 0 1.557.147 2.039.44.5.275.878.663 1.136 1.162a7.326 7.326 0 0 1 1.962-1.137c.74-.31 1.626-.465 2.659-.465 1.411 0 2.452.362 3.123 1.086.672.723 1.007 1.834 1.007 3.333v8.088h-2.762V53.21c0-.947-.198-1.61-.594-1.99-.396-.378-1.041-.568-1.936-.568-.585 0-1.144.103-1.678.31a3.626 3.626 0 0 0-1.342.93c.051.19.086.388.103.595.017.207.026.43.026.672v7.855h-2.608v-7.778c0-.896-.154-1.55-.464-1.964-.31-.413-.895-.62-1.756-.62-.602 0-1.178.146-1.73.44a6.584 6.584 0 0 0-1.445 1.007v8.915h-2.762ZM67.313 61.272a5.653 5.653 0 0 1-2.169-.414 3.63 3.63 0 0 1-1.575-1.24c-.395-.569-.593-1.266-.593-2.093 0-1.172.395-2.11 1.187-2.817.81-.723 2.048-1.085 3.718-1.085h3.924v-.543c0-.586-.095-1.05-.285-1.395-.172-.345-.499-.595-.98-.75-.465-.155-1.154-.232-2.066-.232-1.445 0-2.796.215-4.053.646v-2.093c.551-.224 1.222-.405 2.014-.543a14.914 14.914 0 0 1 2.556-.207c1.79 0 3.15.362 4.078 1.086.947.723 1.42 1.903 1.42 3.54v7.881h-2.4l-.181-1.24c-.5.482-1.119.853-1.859 1.111-.723.259-1.635.388-2.736.388Zm.748-2.016c.844 0 1.575-.138 2.195-.413.636-.293 1.153-.68 1.549-1.163v-2.145h-3.873c-.826 0-1.428.164-1.807.491-.361.31-.542.792-.542 1.447 0 .638.215 1.094.645 1.37.43.275 1.042.413 1.833.413ZM77.61 61.013V48.765h2.581l.155 1.42c.585-.378 1.282-.723 2.091-1.033a11.57 11.57 0 0 1 2.4-.646v2.145c-.481.086-1.006.215-1.574.388-.55.155-1.076.336-1.575.542-.499.19-.92.388-1.264.595v8.837H77.61ZM91.56 61.272c-1.309 0-2.29-.345-2.943-1.034-.637-.706-.956-1.662-.956-2.868V50.96h-1.807v-2.196h1.807v-2.817l2.788-.853v3.67h3.253l-.18 2.196h-3.073v6.254c0 .706.164 1.206.49 1.498.328.276.862.414 1.602.414a4.65 4.65 0 0 0 1.47-.258v1.99c-.67.275-1.488.413-2.451.413ZM109.91 61.272c-2.736 0-4.81-.75-6.221-2.248-1.394-1.5-2.091-3.523-2.091-6.073 0-1.826.292-3.394.877-4.703.603-1.327 1.515-2.343 2.737-3.05 1.222-.723 2.779-1.085 4.672-1.085.964 0 1.842.078 2.633.233.809.138 1.558.327 2.246.568v2.455a11.04 11.04 0 0 0-2.22-.62 12.466 12.466 0 0 0-2.452-.233c-2.065 0-3.528.552-4.389 1.654-.843 1.103-1.265 2.696-1.265 4.78 0 1.948.465 3.43 1.394 4.446.93.999 2.367 1.498 4.311 1.498.792 0 1.584-.06 2.375-.18a11.57 11.57 0 0 0 2.272-.62v2.48c-.688.224-1.437.396-2.246.517-.791.12-1.669.18-2.633.18ZM120.563 61.272c-.998 0-1.755-.241-2.271-.724-.517-.5-.775-1.318-.775-2.455V43.596h2.814v14.239c0 .482.086.81.258.982.172.172.43.258.775.258.413 0 .809-.051 1.187-.155v2.042c-.327.12-.645.198-.955.232a6.016 6.016 0 0 1-1.033.078ZM130.948 61.272c-2.134 0-3.786-.526-4.956-1.576-1.171-1.051-1.756-2.662-1.756-4.833 0-1.964.499-3.514 1.497-4.651.999-1.137 2.513-1.706 4.544-1.706 1.859 0 3.253.491 4.182 1.473.947.965 1.42 2.214 1.42 3.747V56h-8.958c.138 1.189.568 2.007 1.291 2.455.723.448 1.824.672 3.304.672.62 0 1.256-.06 1.91-.18a9.29 9.29 0 0 0 1.704-.466v2.067a8.077 8.077 0 0 1-1.91.543c-.706.12-1.463.18-2.272.18Zm-4.027-7.106h6.48v-.853c0-.844-.233-1.5-.697-1.964-.465-.483-1.248-.724-2.35-.724-1.308 0-2.211.285-2.71.853-.482.569-.723 1.464-.723 2.688ZM142.439 61.272a5.653 5.653 0 0 1-2.169-.414 3.632 3.632 0 0 1-1.575-1.24c-.395-.569-.593-1.266-.593-2.093 0-1.172.396-2.11 1.187-2.817.809-.723 2.048-1.085 3.718-1.085h3.924v-.543c0-.586-.095-1.05-.284-1.395-.173-.345-.5-.595-.981-.75-.465-.155-1.153-.232-2.066-.232-1.445 0-2.796.215-4.053.646v-2.093c.551-.224 1.222-.405 2.014-.543a14.921 14.921 0 0 1 2.556-.207c1.79 0 3.149.362 4.078 1.086.947.723 1.42 1.903 1.42 3.54v7.881h-2.401l-.18-1.24c-.499.482-1.119.853-1.859 1.111-.723.259-1.635.388-2.736.388Zm.748-2.016c.844 0 1.575-.138 2.195-.413.636-.293 1.153-.68 1.549-1.163v-2.145h-3.873c-.826 0-1.428.164-1.807.491-.361.31-.542.792-.542 1.447 0 .638.215 1.094.645 1.37.431.275 1.042.413 1.833.413ZM152.736 61.013V48.765h2.581l.129 1.292a7.637 7.637 0 0 1 1.962-1.086c.775-.31 1.627-.465 2.556-.465 1.583 0 2.736.37 3.459 1.111.723.741 1.084 1.896 1.084 3.463v7.933h-2.788V53.21c0-.947-.198-1.61-.593-1.99-.379-.378-1.102-.568-2.169-.568-.637 0-1.265.13-1.884.388a4.787 4.787 0 0 0-1.523 1.008v8.966h-2.814Z" fill="#0075FF"/><path fill-rule="evenodd" clip-rule="evenodd" d="M141.019 19.397H32.269C14.447 19.397 0 33.859 0 51.699S14.447 84 32.269 84H159.73C177.553 84 192 69.538 192 51.699c0-12.866-7.513-23.974-18.388-29.169a17.597 17.597 0 0 0-2.963 2.221c10.629 4.32 18.124 14.757 18.124 26.948 0 16.055-13.002 29.07-29.042 29.07H32.269c-16.04 0-29.042-13.015-29.042-29.07 0-16.056 13.002-29.072 29.042-29.072h120.476a16.853 16.853 0 0 0-5.121-2.072l-6.605-1.158Z" fill="#0075FF"/><path d="m173.323 17.796 6.123 1.125-6.17 1.073c-4.592 1.023-8.132 4.91-8.993 9.819l-1.148 8.028-1.196-8.028c-.861-4.91-4.401-8.796-8.993-9.819l-6.123-1.073 6.171-1.074c4.592-1.023 8.132-4.91 8.993-9.819L163.183 0l1.196 8.028c.813 4.91 4.352 8.796 8.944 9.768Z" fill="#0075FF"/></svg><svg fill="none" viewBox="0 0 22 24" id="map-c" xmlns="http://www.w3.org/2000/svg"><path d="M8.6 10.394a2.4 2.4 0 0 1 4.8 0 2.4 2.4 0 0 1-4.8 0Z" fill="#0075FF"/><path fill-rule="evenodd" clip-rule="evenodd" d="M.6 10.394C.6 4.654 5.258 0 11 0s10.4 4.654 10.4 10.394c0 4.278-2.141 7.668-4.434 9.96A17.396 17.396 0 0 1 13.58 23c-.515.304-.997.543-1.415.708-.396.156-.81.277-1.166.277-.355 0-.77-.121-1.166-.277-.418-.165-.9-.404-1.415-.708a17.392 17.392 0 0 1-3.385-2.646C2.741 18.062.6 14.671.6 10.393ZM11 6.396a4 4 0 0 0-4 3.998 4 4 0 0 0 8 0 4 4 0 0 0-4-3.998Z" fill="#0075FF"/></svg><svg fill="none" viewBox="0 0 16 2" id="minus" xmlns="http://www.w3.org/2000/svg"><path d="M9 0H0v2h16V0H9Z" fill="#0075FF"/></svg><svg fill="none" viewBox="0 0 16 16" id="ph-icon" xmlns="http://www.w3.org/2000/svg"><path fill-rule="evenodd" clip-rule="evenodd" d="M1.863 2.362c.88-.927 1.191-1.187 1.566-1.308.26-.068.532-.072.793-.011.344.1.435.176 1.563 1.3.991.987 1.09 1.094 1.185 1.287.182.339.21.739.078 1.1-.1.275-.242.457-.843 1.06l-.392.393a.34.34 0 0 0-.06.394 10.123 10.123 0 0 0 3.59 3.6c.171.091.381.062.52-.073l.377-.371a8.58 8.58 0 0 1 .74-.674c.407-.25.914-.272 1.341-.059.21.1.278.162 1.3 1.182 1.054 1.051 1.084 1.084 1.2 1.325.219.399.216.882-.006 1.279-.113.224-.182.305-.775.911-.358.366-.695.7-.749.749a2.444 2.444 0 0 1-1.75.554 7.966 7.966 0 0 1-3.285-1.049 15.083 15.083 0 0 1-5.514-5c-.303-.44-.572-.902-.806-1.382A6.872 6.872 0 0 1 1 4.029c.048-.65.36-1.253.863-1.667Z" fill="#0075FF" stroke="#0075FF" stroke-width=".5" stroke-linecap="round" stroke-linejoin="round"/></svg><svg fill="none" viewBox="0 0 16 16" id="plus" xmlns="http://www.w3.org/2000/svg"><path d="M9 0H7v7H0v2h7v7h2V9h7V7H9V0Z" fill="#828282"/></svg><svg fill="none" viewBox="0 0 10 11" id="pup" xmlns="http://www.w3.org/2000/svg"><path fill-rule="evenodd" clip-rule="evenodd" d="M5 .069 9.331 4.4 8.2 5.531 5 2.331l-3.2 3.2L.669 4.4 5 .069Zm0 4.8L9.331 9.2 8.2 10.331 5 7.131l-3.2 3.2L.669 9.2 5 4.869Z" fill="#828282"/></svg><svg fill="none" viewBox="0 0 12 10" id="sel" xmlns="http://www.w3.org/2000/svg"><path opacity=".5" d="M7.732 9c-.77 1.333-2.694 1.333-3.464 0L.804 3c-.77-1.333.192-3 1.732-3h6.928c1.54 0 2.502 1.667 1.732 3L7.732 9Z" fill="#828282"/></svg><svg fill="none" viewBox="0 0 40 40" id="srv-1" xmlns="http://www.w3.org/2000/svg"><g clip-path="url(#awa)"><path fill-rule="evenodd" clip-rule="evenodd" d="M19.502 10.112a9.388 9.388 0 1 1 0 18.776 9.388 9.388 0 0 1 0-18.776Zm8.86 21.797.676-2.364a.608.608 0 0 0-.608-.775l-2.414-.087a.607.607 0 1 0-.042 1.214l.82.029c-.723.507-1.502.942-2.326 1.29a12.735 12.735 0 0 1-12.969-1.828A12.731 12.731 0 0 1 7.06 16.835a12.681 12.681 0 0 1 1.444-3.729.608.608 0 1 0-1.052-.608 13.889 13.889 0 0 0-1.582 4.085 13.949 13.949 0 0 0 4.864 13.748 13.94 13.94 0 0 0 16.619.689l-.16.556a.608.608 0 0 0 1.17.334Zm3.192-5.407a13.895 13.895 0 0 0 1.58-4.086A13.945 13.945 0 0 0 11.654 7.98l.16-.557a.608.608 0 1 0-1.172-.333l-.675 2.365a.608.608 0 0 0 .607.775l2.415.087a.607.607 0 1 0 .042-1.214l-.82-.03c.71-.498 1.476-.926 2.287-1.273a12.729 12.729 0 0 1 17.446 14.364 12.682 12.682 0 0 1-1.443 3.728.608.608 0 1 0 1.054.61ZM3.695 28.686a18.211 18.211 0 0 1-2.074-5.36A18.295 18.295 0 0 1 8 5.289a18.297 18.297 0 0 1 18.693-2.603 18.183 18.183 0 0 1 3.883 2.265l-1.894.068a.608.608 0 0 0 .042 1.214l3.44-.123a.61.61 0 0 0 .607-.775l-.957-3.351a.609.609 0 1 0-1.171.333l.424 1.483a19.388 19.388 0 0 0-3.898-2.232A19.51 19.51 0 0 0 7.233 4.346 19.513 19.513 0 0 0 .43 23.579a19.418 19.418 0 0 0 2.213 5.716.608.608 0 0 0 1.052-.61ZM35.31 10.315a18.201 18.201 0 0 1 2.073 5.358 18.295 18.295 0 0 1-6.378 18.038 18.303 18.303 0 0 1-18.637 2.628 18.213 18.213 0 0 1-3.94-2.29l1.895-.067a.608.608 0 0 0-.042-1.214l-3.44.123a.609.609 0 0 0-.607.775l.956 3.351a.609.609 0 1 0 1.171-.333L7.938 35.2a19.423 19.423 0 0 0 3.96 2.257 19.51 19.51 0 0 0 19.874-2.804 19.515 19.515 0 0 0 6.803-19.234 19.442 19.442 0 0 0-2.212-5.715.608.608 0 0 0-1.053.61Zm-9.869 8.679h-.644a.506.506 0 0 0 0 1.012h.644a.506.506 0 0 0 0-1.012Zm-6.532-2.8V19.5c0 .234.136.438.334.534l2.17 1.253a.593.593 0 0 0 .594-1.024l-1.911-1.104v-2.966a.594.594 0 0 0-1.187 0Zm4.435-1.252-.455.455a.506.506 0 1 0 .716.716l.455-.455a.506.506 0 1 0-.716-.716Zm-4.349-1.38v.643a.506.506 0 0 0 1.013 0v-.644a.506.506 0 0 0-1.013 0Zm-4.05 2.096.455.455a.506.506 0 1 0 .716-.716l-.455-.455a.506.506 0 1 0-.716.716Zm-1.382 4.349h.644a.506.506 0 0 0 0-1.013h-.644a.506.506 0 0 0 0 1.013Zm2.098 4.051.455-.455a.506.506 0 1 0-.716-.716l-.455.455a.506.506 0 1 0 .716.716Zm4.348 1.382v-.644a.507.507 0 0 0-1.013 0v.644a.506.506 0 0 0 1.013 0Zm4.051-2.098-.455-.455a.506.506 0 1 0-.716.716l.455.455a.506.506 0 1 0 .716-.716Zm-4.558-11.586a7.744 7.744 0 1 0 0 15.488 7.744 7.744 0 0 0 0-15.488Z" fill="#828282"/></g><defs><clipPath id="awa"><path fill="#fff" d="M0 0h40v40H0z"/></clipPath></defs></svg><svg fill="none" viewBox="0 0 80 80" id="srv-2" xmlns="http://www.w3.org/2000/svg"><path d="M59.141 49.945 70.273 5.77a1.334 1.334 0 0 0-2.586-.653l-11.13 44.166c-4.315.046-8.142 5.024-9.355 9.84-.051.207-.036.417.011.622l-3.85 9.214a1.336 1.336 0 0 0 .906 1.809l4.1 1.035c.3.073.618.044.898-.088l1.862-.885-.068.275c-.18.715.253 1.44.967 1.62l7.756 1.957a1.333 1.333 0 0 0 1.653-1.162l.98-9.938c.138-.159.252-.336.304-.543 1.25-4.97.029-11.092-3.58-13.093Zm-.207 21.77-4.963-1.252.436-1.725a1.331 1.331 0 0 0-1.864-1.531l-3.984 1.891-2.137-.538 3.12-7.471 3.52.887 6.665 1.684-.793 8.055Zm1.462-10.64-10.213-2.577c1.435-3.944 4.667-7.082 7.061-6.475 2.41.606 3.788 4.803 3.151 9.052ZM42 21.757c-2.206 0-4-1.795-4-4.003a1.333 1.333 0 1 0-2.667 0 4.005 4.005 0 0 1-4 4.003 1.333 1.333 0 0 0 0 2.669c2.207 0 4 1.795 4 4.003a1.333 1.333 0 1 0 2.667 0 4.005 4.005 0 0 1 4-4.003 1.333 1.333 0 0 0 0-2.669Zm-5.333 2.673a6.752 6.752 0 0 0-1.338-1.339 6.789 6.789 0 0 0 1.338-1.339c.38.507.83.958 1.338 1.34a6.746 6.746 0 0 0-1.338 1.338ZM76.667 57.786c-2.207 0-4-1.795-4-4.004a1.333 1.333 0 1 0-2.667 0 4.005 4.005 0 0 1-4 4.004 1.333 1.333 0 1 0 0 2.668c2.206 0 4 1.795 4 4.004a1.333 1.333 0 1 0 2.667 0 4.005 4.005 0 0 1 4-4.004 1.333 1.333 0 0 0 0-2.668Zm-5.334 2.673a6.749 6.749 0 0 0-1.338-1.339 6.792 6.792 0 0 0 1.338-1.339c.381.506.83.958 1.338 1.339a6.746 6.746 0 0 0-1.338 1.339ZM38 44.442H12.667v-8.007a2.67 2.67 0 0 1 2.666-2.669A2.67 2.67 0 0 1 18 36.437a1.333 1.333 0 1 0 2.667 0 5.341 5.341 0 0 0-5.334-5.338A5.341 5.341 0 0 0 10 36.435v8.007H3.333c-.737 0-1.333.597-1.333 1.334v21.35c0 .737.596 1.335 1.333 1.335h1.334v2.669H3.333a1.333 1.333 0 0 0 0 2.668H38a1.333 1.333 0 0 0 0-2.668h-1.333v-2.67H38c.737 0 1.333-.597 1.333-1.334v-21.35c0-.737-.596-1.334-1.333-1.334ZM4.667 65.792V47.111h14.666v18.681H4.667ZM34 71.13H7.333v-2.67H34v2.67Zm2.667-5.338H22V47.111h14.667v18.681Z" fill="#828282"/><path d="M16.667 52.448c-.738 0-1.334.598-1.334 1.334v5.338a1.333 1.333 0 1 0 2.667 0v-5.338c0-.736-.596-1.334-1.333-1.334ZM24.667 60.454c.737 0 1.333-.597 1.333-1.334v-5.338a1.333 1.333 0 1 0-2.667 0v5.338c0 .737.596 1.334 1.334 1.334ZM3.333 25.76h24a1.333 1.333 0 1 0 0-2.669h-6.666v-4.003c0-.736-.596-1.334-1.334-1.334h-8c-.737 0-1.333.598-1.333 1.334v4.003H3.333a1.333 1.333 0 0 0 0 2.67Zm9.334-5.338H18v2.67h-5.333v-2.67ZM46 25.76h1.333v5.527c-2.293.596-4 2.669-4 5.148a5.341 5.341 0 0 0 5.334 5.338A5.341 5.341 0 0 0 54 36.435c0-2.48-1.707-4.55-4-5.148V25.76h6.667a1.333 1.333 0 0 0 0-2.669H46a1.333 1.333 0 0 0 0 2.67Zm5.333 10.675a2.67 2.67 0 0 1-2.666 2.669A2.67 2.67 0 0 1 46 36.435a2.67 2.67 0 0 1 2.667-2.669 2.67 2.67 0 0 1 2.666 2.67Z" fill="#828282"/></svg><svg fill="none" viewBox="0 0 40 40" id="srv-3" xmlns="http://www.w3.org/2000/svg"><g clip-path="url(#aya)" fill="#828282"><path d="M20.69 34.8H3.448V18.248h23.449v3.287a.69.69 0 0 0 1.379 0v-3.287H29.669c.381 0 .69-.39.69-.77a.81.81 0 0 0-.142-.46L24.755 6.155c-.116-.233-.355-.32-.616-.32h-8.966V2.913c0-.38-.31-.529-.69-.529H8.966c-.381 0-.69.148-.69.529v2.92h-2.07c-.26 0-.499.066-.616.3L.073 17.128a.811.811 0 0 0 .03.731c.126.204.347.388.587.388h1.379v17.08c0 .381.309.851.69.851h17.93a.69.69 0 0 0 0-1.378ZM9.655 3.765h4.138v2.07H9.655v-2.07ZM6.633 7.213h17.079l4.827 9.656H1.806l4.827-9.656Z"/><path d="M20 22.386a.69.69 0 0 0-.69-.69h-8.275a.69.69 0 0 0-.69.69v8.276c0 .38.309.69.69.69h8.275a.69.69 0 0 0 .69-.69v-8.276Zm-1.38 3.448h-2.758v-2.758h2.759v2.758Zm-4.137-2.758v2.758h-2.759v-2.758h2.759Zm-2.759 4.137h2.759v2.759h-2.759v-2.759Zm4.138 2.759v-2.759h2.759v2.759h-2.759ZM30.245 23.69 36.005.858a.69.69 0 1 0-1.337-.337L28.91 23.347c-2.232.024-4.21 2.597-4.838 5.086a.675.675 0 0 0 .004.322l-1.99 4.761a.69.69 0 0 0 .469.935l2.12.535c.155.039.319.023.464-.045l.964-.457-.036.142a.69.69 0 0 0 .5.837l4.011 1.012a.691.691 0 0 0 .565-.104.688.688 0 0 0 .29-.496l.506-5.137a.679.679 0 0 0 .157-.28c.647-2.57.015-5.734-1.85-6.768Zm-.107 11.251-2.567-.647.226-.891a.69.69 0 0 0-.964-.791l-2.062.977-1.104-.278 1.614-3.86 5.268 1.328-.41 4.162Zm.755-5.5-5.282-1.331c.742-2.04 2.42-3.658 3.652-3.347 1.247.314 1.96 2.483 1.63 4.679ZM18.62 12.57a2.07 2.07 0 0 1 2.07 2.069.69.69 0 0 0 1.379 0 2.07 2.07 0 0 1 2.069-2.07.69.69 0 0 0 0-1.379 2.07 2.07 0 0 1-2.069-2.068.69.69 0 0 0-1.38 0 2.07 2.07 0 0 1-2.068 2.069.69.69 0 0 0 0 1.379Zm2.76-1.382c.196.262.43.495.691.692-.261.196-.495.43-.692.691a3.506 3.506 0 0 0-.692-.692c.262-.196.496-.43.692-.69ZM39.31 27.742a2.07 2.07 0 0 1-2.069-2.069.69.69 0 0 0-1.379 0 2.07 2.07 0 0 1-2.069 2.07.69.69 0 0 0 0 1.379 2.07 2.07 0 0 1 2.07 2.069.69.69 0 0 0 1.378 0 2.07 2.07 0 0 1 2.07-2.07.69.69 0 0 0 0-1.379Zm-2.758 1.381a3.517 3.517 0 0 0-.692-.692c.261-.196.495-.43.692-.691.197.262.43.495.692.692-.262.196-.495.43-.692.691Z"/></g><defs><clipPath id="aya"><path fill="#fff" d="M0 0h40v40H0z"/></clipPath></defs></svg><svg fill="none" viewBox="0 0 40 40" id="srv-4" xmlns="http://www.w3.org/2000/svg"><path d="M2.759 9.897a.69.69 0 1 0 1.379 0 2.07 2.07 0 0 1 2.069-2.07.69.69 0 1 0 0-1.379A2.07 2.07 0 0 1 4.138 4.38a.69.69 0 1 0-1.38 0A2.07 2.07 0 0 1 .69 6.45a.69.69 0 1 0 0 1.379 2.07 2.07 0 0 1 2.069 2.069Zm.69-3.451c.196.262.43.495.691.692a3.49 3.49 0 0 0-.692.692 3.51 3.51 0 0 0-.692-.692c.262-.197.495-.43.692-.692ZM39.31 28.518a2.07 2.07 0 0 1-2.069-2.07.69.69 0 1 0-1.379 0 2.07 2.07 0 0 1-2.069 2.07.69.69 0 1 0 0 1.38 2.07 2.07 0 0 1 2.069 2.068.69.69 0 1 0 1.38 0 2.07 2.07 0 0 1 2.068-2.069.69.69 0 1 0 0-1.38Zm-2.758 1.381a3.513 3.513 0 0 0-.692-.692c.261-.197.495-.43.692-.692.197.262.43.495.692.692-.262.197-.495.43-.692.692Z" fill="#828282"/><path d="M33.449 33.345h-2.07v-20a.69.69 0 0 0-.69-.69h-1.378V9.207a.69.69 0 0 0-.69-.69h-1.38V7.138h1.38a.69.69 0 0 0 .69-.69V3.69a.69.69 0 0 0-.69-.69H16.207a.69.69 0 0 0-.69.69v2.758c0 .382.31.69.69.69h1.38v1.38h-1.38a.69.69 0 0 0-.69.689v3.448H4.482a.69.69 0 0 0-.69.69v20H1.725a.69.69 0 0 0-.69.69v2.759c0 .381.31.69.69.69h31.725a.69.69 0 0 0 .69-.69v-2.759a.69.69 0 0 0-.69-.69ZM16.897 4.38H27.93v1.38H16.896v-1.38Zm2.069 2.759h6.896v1.38h-6.896v-1.38Zm-2.07 2.759h11.035v2.758h-2.069v-1.379a.69.69 0 1 0-1.38 0v1.38h-1.378v-1.38a.69.69 0 1 0-1.38 0v1.38h-1.38v-1.38a.69.69 0 1 0-1.379 0v1.38h-2.069v-2.76ZM5.172 14.035H30v19.31h-7.586v-4.827a.69.69 0 0 0-.69-.69h-8.276a.69.69 0 0 0-.69.69v4.827H5.172v-19.31Zm8.966 19.31v-4.138h2.758v4.138h-2.758Zm4.138-4.138h2.759v4.138h-2.76v-4.138Zm14.483 6.897H2.413v-1.38H32.76v1.38Z" fill="#828282"/><path d="M8.62 14.724a.69.69 0 0 0-.69.69v1.97a.69.69 0 1 0 1.38 0v-1.97a.69.69 0 0 0-.69-.69ZM8.62 18.665a.69.69 0 0 0-.69.69v1.97a.69.69 0 1 0 1.38 0v-1.97a.69.69 0 0 0-.69-.69ZM8.62 22.606a.69.69 0 0 0-.69.69v1.97a.69.69 0 1 0 1.38 0v-1.97a.69.69 0 0 0-.69-.69ZM8.62 26.548a.69.69 0 0 0-.69.69v1.97a.69.69 0 1 0 1.38 0v-1.97a.69.69 0 0 0-.69-.69ZM11.38 14.724a.69.69 0 0 0-.69.69v1.97a.69.69 0 1 0 1.379 0v-1.97a.69.69 0 0 0-.69-.69ZM11.38 18.665a.69.69 0 0 0-.69.69v1.97a.69.69 0 1 0 1.379 0v-1.97a.69.69 0 0 0-.69-.69ZM11.38 22.606a.69.69 0 0 0-.69.69v1.97a.69.69 0 1 0 1.379 0v-1.97a.69.69 0 0 0-.69-.69ZM14.828 18.074a.69.69 0 0 0 .69-.69v-1.97a.69.69 0 1 0-1.38 0v1.97c0 .382.309.69.69.69ZM14.828 22.015a.69.69 0 0 0 .69-.69v-1.97a.69.69 0 1 0-1.38 0v1.97c0 .382.309.69.69.69ZM14.828 25.956a.69.69 0 0 0 .69-.69v-1.97a.69.69 0 1 0-1.38 0v1.97c0 .382.309.69.69.69ZM17.586 18.074a.69.69 0 0 0 .69-.69v-1.97a.69.69 0 1 0-1.38 0v1.97c0 .382.31.69.69.69ZM17.586 22.015a.69.69 0 0 0 .69-.69v-1.97a.69.69 0 1 0-1.38 0v1.97c0 .382.31.69.69.69ZM17.586 25.956a.69.69 0 0 0 .69-.69v-1.97a.69.69 0 1 0-1.38 0v1.97c0 .382.31.69.69.69ZM20.345 18.074a.69.69 0 0 0 .69-.69v-1.97a.69.69 0 1 0-1.38 0v1.97c0 .382.31.69.69.69ZM20.345 22.015a.69.69 0 0 0 .69-.69v-1.97a.69.69 0 1 0-1.38 0v1.97c0 .382.31.69.69.69ZM20.345 25.956a.69.69 0 0 0 .69-.69v-1.97a.69.69 0 1 0-1.38 0v1.97c0 .382.31.69.69.69ZM23.793 18.074a.69.69 0 0 0 .69-.69v-1.97a.69.69 0 1 0-1.38 0v1.97c0 .382.31.69.69.69ZM23.793 22.015a.69.69 0 0 0 .69-.69v-1.97a.69.69 0 1 0-1.38 0v1.97c0 .382.31.69.69.69ZM23.793 25.956a.69.69 0 0 0 .69-.69v-1.97a.69.69 0 1 0-1.38 0v1.97c0 .382.31.69.69.69ZM26.552 18.074a.69.69 0 0 0 .69-.69v-1.97a.69.69 0 1 0-1.38 0v1.97c0 .382.31.69.69.69ZM26.552 22.015a.69.69 0 0 0 .69-.69v-1.97a.69.69 0 1 0-1.38 0v1.97c0 .382.31.69.69.69ZM26.552 25.956a.69.69 0 0 0 .69-.69v-1.97a.69.69 0 1 0-1.38 0v1.97c0 .382.31.69.69.69ZM26.552 29.897a.69.69 0 0 0 .69-.69v-1.97a.69.69 0 1 0-1.38 0v1.97c0 .382.31.69.69.69Z" fill="#828282"/></svg><svg fill="none" viewBox="0 0 40 40" id="srv-5" xmlns="http://www.w3.org/2000/svg"><path d="M32.878 22.161 29.268 20c-.009-.005-.015-.012-.023-.017l-2.88-1.722-.008-.004-.367-.22a.722.722 0 0 0-.946.188l-.01.013-.519-1.572c1.05-1.197 1.735-2.91 1.814-4.831 1.1-.872 1.974-2.436 2.084-3.814.083-1.02-.23-1.88-.904-2.484-.261-.233-.562-.368-.826-.486-.194-.086-.394-.176-.475-.267-.094-.105-.185-.312-.272-.513-.1-.23-.213-.49-.38-.727-.745-1.05-1.836-1.532-3.163-1.4-2.982.308-6.027.55-9.05.718a.72.72 0 0 0-.677.665c-.433 5.71 1.902 7.762 2.925 8.381.094 1.89.773 3.574 1.81 4.755l-.518 1.572-.011-.013a.721.721 0 0 0-.946-.187l-.367.22-.009.003-2.88 1.722c-.008.005-.014.012-.021.017l-3.61 2.162c-2.003 1.198-3.2 3.212-3.2 5.39v9.882c0 .398.323.72.72.72h28.797a.72.72 0 0 0 .72-.72v-9.883c0-2.177-1.196-4.191-3.198-5.387Zm-16.24-2.099c.021.018.045.034.068.052.013.013.021.028.035.039.11.088.225.169.339.25.024.016.045.034.069.05a6.464 6.464 0 0 0 .572.349c.174.094.352.18.535.258.052.022.104.04.157.061.145.059.292.112.44.16.058.02.117.036.176.054.153.045.309.084.466.118l.154.033c.185.035.372.063.56.084l.072.01c.224.021.45.036.676.036.226 0 .452-.015.676-.037.025-.002.048-.006.073-.009.188-.02.375-.049.56-.084a6.437 6.437 0 0 0 .62-.152c.059-.017.117-.033.175-.052a6.69 6.69 0 0 0 .441-.16c.053-.021.106-.04.158-.062a6.42 6.42 0 0 0 .535-.259l.026-.012c.187-.103.368-.215.545-.336.024-.017.045-.035.07-.051.114-.081.229-.162.338-.25.014-.011.022-.026.036-.039.021-.018.045-.033.066-.051v5.12h-8.639l.001-5.12Zm2.11-2.27c.081.046.163.09.246.133.084.041.166.082.25.118.136.058.272.108.412.153.035.01.07.024.105.035.386.114.786.179 1.197.179a4.22 4.22 0 0 0 1.198-.18c.035-.01.07-.024.105-.035a4.277 4.277 0 0 0 .907-.404c.056-.032.116-.057.172-.093l.533 1.615-.04.029c-1.678 1.074-4.07 1.074-5.75 0l-.04-.029.534-1.615c.055.036.115.06.171.093ZM14.064 4.263c2.834-.168 5.682-.398 8.476-.685.798-.083 1.402.179 1.841.799.08.114.156.285.234.466.127.292.27.623.52.9.287.321.661.488.961.622.185.082.36.16.452.244.331.296.476.732.43 1.293-.05.64-.355 1.368-.776 1.972a8.362 8.362 0 0 0-.445-1.585.72.72 0 0 0-1.088-.324c-.966.689-2.386.52-3.17-.37a.743.743 0 0 0-1.082 0c-.784.89-2.205 1.059-3.17.37a.717.717 0 0 0-1.088.324 8.46 8.46 0 0 0-.484 1.86c-.769-.792-1.747-2.477-1.61-5.886Zm3.183 5.33c1.213.47 2.673.258 3.71-.54 1.037.798 2.497 1.01 3.711.54a7.41 7.41 0 0 1 .235 1.87c0 1.85-.66 3.485-1.665 4.484-.013.01-.028.018-.04.03-1.332 1.297-3.148 1.297-4.48 0-.013-.012-.028-.02-.04-.03-1.006-.999-1.665-2.633-1.665-4.483 0-.648.078-1.274.234-1.871ZM7.279 27.548c0-1.665.933-3.216 2.497-4.15l2.543-1.522v3.43a2.165 2.165 0 0 0-1.44 2.038v9.366h-3.6v-9.162Zm5.04 9.162v-9.366c0-.398.323-.72.72-.72a.72.72 0 0 0 .72-.721v-4.89l1.44-.863v5.753c0 .398.322.72.72.72h10.078a.72.72 0 0 0 .72-.72V20.15l1.44.862v4.89c0 .398.322.72.72.72.192 0 .37.075.512.221a.69.69 0 0 1 .207.5v9.366H12.32Zm22.317 0h-3.6v-9.366c0-.585-.228-1.129-.628-1.518a2.098 2.098 0 0 0-.812-.52v-3.431l2.543 1.522c1.563.935 2.497 2.486 2.497 4.151v9.162Z" fill="#828282"/><path d="M6.56 20.14a.72.72 0 0 0 .72-.72c0-1.193.968-2.162 2.16-2.162a.72.72 0 0 0 0-1.441c-1.192 0-2.16-.97-2.16-2.162a.72.72 0 1 0-1.44 0 2.162 2.162 0 0 1-2.16 2.162.72.72 0 1 0 0 1.44c1.191 0 2.16.97 2.16 2.162 0 .398.322.72.72.72Zm0-4.326c.205.274.449.517.722.723a3.642 3.642 0 0 0-.723.723 3.666 3.666 0 0 0-.722-.723c.273-.206.517-.45.722-.723ZM37.516 6.45c-1.192 0-2.16-.969-2.16-2.16a.72.72 0 1 0-1.44 0 2.162 2.162 0 0 1-2.16 2.16.72.72 0 0 0 0 1.442c1.192 0 2.16.969 2.16 2.161a.72.72 0 1 0 1.44 0c0-1.192.968-2.161 2.16-2.161a.72.72 0 0 0 0-1.441Zm-2.88 1.443a3.664 3.664 0 0 0-.722-.723c.273-.206.516-.449.722-.723.206.274.45.517.722.723-.273.206-.516.45-.722.723ZM23.932 32.365a.611.611 0 0 1-.718.534 2.288 2.288 0 0 1-.236.57c.03.02.059.044.086.07.568.57-.296 1.434-.864.865a.588.588 0 0 1-.07-.086 2.355 2.355 0 0 1-.57.236.61.61 0 0 1 .01.11c0 .805-1.221.805-1.221 0 0-.037.003-.074.01-.11a2.291 2.291 0 0 1-.569-.236.578.578 0 0 1-.072.086c-.568.569-1.432-.297-.863-.865a.64.64 0 0 1 .085-.071 2.36 2.36 0 0 1-.236-.57.61.61 0 0 1-.718-.534h1.508a1.468 1.468 0 0 0 2.932 0l1.506.001Zm-6.508-.851h.632c-.11-1.282.545-2.308 1.668-2.903v1.124c0 1.619 2.47 1.631 2.47 0v-1.124c1.123.595 1.777 1.62 1.667 2.903h.632a.278.278 0 0 1 0 .555h-7.067a.278.278 0 0 1-.196-.473.262.262 0 0 1 .194-.082Zm4.074-3.124c.007.447.002.896.002 1.345 0 .705-1.084.71-1.084 0 0-.448-.004-.898.002-1.345a3.054 3.054 0 0 1 1.08 0Z" fill="#828282"/></svg><svg fill="none" viewBox="0 0 36 32" id="srv-6" xmlns="http://www.w3.org/2000/svg"><path d="m35.88 19.147-6.188-7.875a.563.563 0 0 0-.442-.215H6.75a.562.562 0 0 0-.442.215L.12 19.147a.563.563 0 0 0 .442.91h1.125v10.688c0 .31.252.562.563.562h31.5a.562.562 0 0 0 .563-.562V20.056h1.125a.563.563 0 0 0 .442-.91ZM24.187 30.182H11.812V20.057h12.375v10.125Zm-1.398-11.25H13.21l-5.303-6.75h20.185l-5.303 6.75ZM5.624 30.182v-3.375h2.25v3.375h-2.25Zm3.376 0v-3.937a.562.562 0 0 0-.563-.563H5.062a.562.562 0 0 0-.563.563v3.937H2.812V19.495a.562.562 0 0 0-.563-.563h-.53l5.03-6.403 5.03 6.402h-.53a.562.562 0 0 0-.562.563v10.688H9Zm19.125 0v-3.375h2.25v3.375h-2.25Zm5.625-11.25a.562.562 0 0 0-.563.563v10.687H31.5v-3.937a.562.562 0 0 0-.563-.563h-3.375a.562.562 0 0 0-.562.563v3.937h-1.688V19.495a.562.562 0 0 0-.562-.563h-.53l5.03-6.403 5.03 6.402h-.53v.001Z" fill="#828282"/><path d="M21.937 21.745h-7.875a.562.562 0 0 0-.562.562v5.625c0 .31.25.563.562.563h7.875a.562.562 0 0 0 .563-.563v-5.625a.563.563 0 0 0-.563-.562Zm-.562 2.812h-2.813V22.87h2.813v1.687Zm-3.938-1.687v1.687h-2.812V22.87h2.812Zm-2.812 2.812h2.812v1.688h-2.812v-1.688Zm3.937 1.688v-1.688h2.813v1.688h-2.813ZM28.688 7.682c.93 0 1.687.757 1.687 1.687a.562.562 0 1 0 1.125 0c0-.93.757-1.687 1.688-1.687a.562.562 0 1 0 0-1.125A1.69 1.69 0 0 1 31.5 4.869a.562.562 0 1 0-1.125 0 1.69 1.69 0 0 1-1.688 1.688.562.562 0 1 0 0 1.125Zm2.25-1.127c.16.213.35.404.564.564a2.83 2.83 0 0 0-.564.565 2.831 2.831 0 0 0-.565-.565c.214-.16.404-.35.564-.564ZM2.812 7.682c.93 0 1.687.757 1.687 1.687a.562.562 0 1 0 1.125 0c0-.93.758-1.687 1.688-1.687a.562.562 0 1 0 0-1.125 1.69 1.69 0 0 1-1.688-1.688.562.562 0 1 0-1.125 0 1.69 1.69 0 0 1-1.687 1.688.562.562 0 1 0 0 1.125Zm2.25-1.127c.16.213.35.404.564.564-.213.16-.404.35-.564.565a2.812 2.812 0 0 0-.564-.565c.214-.16.404-.35.564-.564ZM22.489.7a4.486 4.486 0 0 0-3.927 2.335h-6.26a2.128 2.128 0 0 0-2.123 2.122c0 1.167.955 2.122 2.122 2.122h1.486c.36 0 .636-.275.636-.636a.625.625 0 0 0-.636-.636H12.3a.852.852 0 0 1-.849-.85c0-.466.382-.849.85-.849h6.664a.653.653 0 0 0 .594-.382 3.166 3.166 0 0 1 2.929-1.952 3.18 3.18 0 0 1 3.183 3.183 3.18 3.18 0 0 1-3.183 3.184 3.167 3.167 0 0 1-2.93-1.953.653.653 0 0 0-.593-.381h-2.42a.625.625 0 0 0-.636.636c0 .36.276.636.636.636h2.016a4.461 4.461 0 0 0 3.927 2.335 4.456 4.456 0 0 0 4.457-4.457A4.456 4.456 0 0 0 22.489.7Z" fill="#828282"/><path d="M23.126 6.007V4.309a.625.625 0 0 0-.637-.637.625.625 0 0 0-.636.637v1.698c0 .36.276.636.636.636s.637-.276.637-.636Z" fill="#828282"/></svg><svg fill="none" viewBox="0 0 112 16" id="stars" xmlns="http://www.w3.org/2000/svg"><g clip-path="url(#bca)"><path fill-rule="evenodd" clip-rule="evenodd" d="M8 0a8 8 0 1 0 0 16A8 8 0 0 0 8 0Zm4.8 6.711-2.619 1.895a.33.33 0 0 0-.121.374l1.005 3.072a.164.164 0 0 1-.06.187.166.166 0 0 1-.197 0l-2.612-1.905a.329.329 0 0 0-.392 0l-2.612 1.905a.164.164 0 0 1-.196 0 .164.164 0 0 1-.06-.186L5.94 8.98a.328.328 0 0 0-.122-.373L3.2 6.71a.164.164 0 0 1-.06-.186.164.164 0 0 1 .159-.115l3.232.006c.147 0 .273-.09.318-.23l.993-3.077a.164.164 0 0 1 .158-.115c.074 0 .136.045.159.115l.993 3.077c.045.14.17.231.318.23L12.7 6.41c.074 0 .136.045.16.115.022.07-.001.143-.06.186Z" fill="#0075FF"/></g><g clip-path="url(#bcb)"><path fill-rule="evenodd" clip-rule="evenodd" d="M56 0a8 8 0 1 0 0 16 8 8 0 0 0 0-16Zm4.8 6.711-2.619 1.895a.33.33 0 0 0-.121.374l1.005 3.072a.164.164 0 0 1-.06.187.166.166 0 0 1-.197 0l-2.612-1.905a.329.329 0 0 0-.392 0l-2.612 1.905a.164.164 0 0 1-.196 0 .164.164 0 0 1-.06-.186L53.94 8.98a.328.328 0 0 0-.121-.373l-2.62-1.896a.164.164 0 0 1-.06-.186.164.164 0 0 1 .158-.115l3.233.006c.147 0 .273-.09.318-.23l.993-3.077a.164.164 0 0 1 .158-.115c.074 0 .136.045.159.115l.993 3.077c.045.14.17.231.318.23l3.233-.006c.073 0 .136.045.158.115.023.07 0 .143-.06.186Z" fill="#0075FF"/></g><g clip-path="url(#bcc)"><path fill-rule="evenodd" clip-rule="evenodd" d="M32 0a8 8 0 1 0 0 16 8 8 0 0 0 0-16Zm4.8 6.711-2.619 1.895a.33.33 0 0 0-.121.374l1.005 3.072a.164.164 0 0 1-.06.187.166.166 0 0 1-.197 0l-2.612-1.905a.329.329 0 0 0-.392 0l-2.612 1.905a.164.164 0 0 1-.196 0 .164.164 0 0 1-.06-.186L29.94 8.98a.328.328 0 0 0-.122-.373L27.2 6.71a.164.164 0 0 1-.06-.186.164.164 0 0 1 .159-.115l3.232.006c.147 0 .273-.09.318-.23l.993-3.077a.164.164 0 0 1 .158-.115c.074 0 .136.045.159.115l.993 3.077c.045.14.17.231.318.23l3.233-.006c.073 0 .136.045.158.115.023.07 0 .143-.06.186Z" fill="#0075FF"/></g><g clip-path="url(#bcd)"><path fill-rule="evenodd" clip-rule="evenodd" d="M80 0a8 8 0 1 0 0 16 8 8 0 0 0 0-16Zm4.8 6.711-2.619 1.895a.33.33 0 0 0-.121.374l1.004 3.072a.164.164 0 0 1-.06.187.166.166 0 0 1-.196 0l-2.612-1.905a.329.329 0 0 0-.392 0l-2.612 1.905a.164.164 0 0 1-.196 0 .164.164 0 0 1-.06-.186L77.94 8.98a.328.328 0 0 0-.121-.373l-2.62-1.896a.164.164 0 0 1-.06-.186.164.164 0 0 1 .159-.115l3.232.006c.147 0 .273-.09.318-.23l.993-3.077a.164.164 0 0 1 .158-.115c.074 0 .136.045.159.115l.993 3.077c.045.14.17.231.318.23l3.233-.006c.073 0 .136.045.158.115.023.07 0 .143-.06.186Z" fill="#0075FF"/></g><g clip-path="url(#bce)"><path fill-rule="evenodd" clip-rule="evenodd" d="M104 0a8 8 0 1 0 0 16 8 8 0 0 0 0-16Zm4.8 6.711-2.619 1.895a.329.329 0 0 0-.121.374l1.004 3.072c.023.07 0 .144-.06.187a.165.165 0 0 1-.196 0l-2.612-1.905a.328.328 0 0 0-.392 0l-2.612 1.905a.164.164 0 0 1-.196 0 .163.163 0 0 1-.061-.186l1.005-3.073a.328.328 0 0 0-.122-.373L99.2 6.71a.164.164 0 0 1-.061-.186.164.164 0 0 1 .159-.115l3.232.006c.147 0 .273-.09.318-.23l.993-3.077a.163.163 0 0 1 .158-.115c.074 0 .136.045.159.115l.993 3.077c.045.14.17.231.318.23l3.233-.006c.073 0 .135.045.158.115.023.07 0 .143-.06.186Z" fill="#0075FF"/></g><defs><clipPath id="bca"><path fill="#fff" d="M0 0h16v16H0z"/></clipPath><clipPath id="bcb"><path fill="#fff" transform="translate(48)" d="M0 0h16v16H0z"/></clipPath><clipPath id="bcc"><path fill="#fff" transform="translate(24)" d="M0 0h16v16H0z"/></clipPath><clipPath id="bcd"><path fill="#fff" transform="translate(72)" d="M0 0h16v16H0z"/></clipPath><clipPath id="bce"><path fill="#fff" transform="translate(96)" d="M0 0h16v16H0z"/></clipPath></defs></svg><svg fill="none" viewBox="0 0 112 16" id="stars4" xmlns="http://www.w3.org/2000/svg"><path d="m80 11.333-3.919 2.394 1.066-4.467-3.487-2.987 4.577-.366L80 1.667l1.763 4.24 4.578.366-3.488 2.987 1.066 4.467L80 11.333ZM32 11.333l-3.919 2.394 1.066-4.467-3.487-2.987 4.577-.366L32 1.667l1.763 4.24 4.578.366-3.488 2.987 1.066 4.467L32 11.333ZM56 11.333l-3.919 2.394 1.066-4.467-3.487-2.987 4.577-.366L56 1.667l1.763 4.24 4.578.366-3.488 2.987 1.066 4.467L56 11.333ZM8 11.333l-3.919 2.394L5.147 9.26 1.66 6.273l4.577-.366L8 1.667l1.763 4.24 4.578.366-3.488 2.987 1.066 4.467L8 11.333Z" fill="#0075FF"/><path d="m104 11.333-3.919 2.394 1.066-4.467-3.487-2.987 4.577-.366L104 1.667l1.763 4.24 4.578.366-3.488 2.987 1.066 4.467L104 11.333Zm0-1.562 1.878 1.146-.511-2.14 1.672-1.43-2.194-.177L104 5.14l-.845 2.031-2.194.176 1.672 1.431-.511 2.14L104 9.771Z" fill="#828282"/></svg><svg fill="none" viewBox="0 0 24 24" id="twitter" xmlns="http://www.w3.org/2000/svg"><path d="M20.739 7.486c.014.197.014.394.014.59C20.753 14.082 16.216 21 7.923 21 5.37 21 2.997 20.255 1 18.961c.363.042.712.056 1.089.056a8.988 8.988 0 0 0 5.598-1.94 4.521 4.521 0 0 1-4.216-3.15c.279.042.558.07.851.07.405 0 .81-.056 1.187-.155a4.535 4.535 0 0 1-3.616-4.458v-.056c.6.338 1.299.549 2.038.577a4.548 4.548 0 0 1-2.01-3.783c0-.844.224-1.617.614-2.292a12.786 12.786 0 0 0 9.297 4.753 5.163 5.163 0 0 1-.111-1.04C11.72 5.038 13.73 3 16.23 3c1.298 0 2.47.548 3.294 1.434a8.837 8.837 0 0 0 2.862-1.097 4.524 4.524 0 0 1-1.982 2.504A8.987 8.987 0 0 0 23 5.138a9.73 9.73 0 0 1-2.261 2.348Z" fill="#3D3D3D"/></svg><svg fill="none" viewBox="0 0 12 10" id="v" xmlns="http://www.w3.org/2000/svg"><path d="m.4 5 4.8 4 6.4-8" stroke="#fff"/></svg><svg fill="none" viewBox="0 0 24 24" id="youtube" xmlns="http://www.w3.org/2000/svg"><path d="m13.611 12.5-2.344 1.591V10.91L13.61 12.5Z" fill="#3D3D3D"/><path fill-rule="evenodd" clip-rule="evenodd" d="M3.209 3.948a41.226 41.226 0 0 1 17.582 0C22.079 4.23 23 5.388 23 6.73v11.54c0 1.341-.92 2.5-2.209 2.782a41.225 41.225 0 0 1-17.582 0C1.921 20.77 1 19.612 1 18.27V6.73c0-1.341.92-2.5 2.209-2.782Zm7.731 4.944a.722.722 0 0 0-.753-.037.749.749 0 0 0-.387.658v5.973c0 .276.149.529.387.659.239.13.528.116.753-.037l4.4-2.987a.75.75 0 0 0 .327-.621.75.75 0 0 0-.327-.621l-4.4-2.987Z" fill="#3D3D3D"/></svg></svg>