<svg width="91" height="71" viewBox="0 0 91 71" fill="none" xmlns="http://www.w3.org/2000/svg">
<path d="M28.8565 70.152C23.3525 70.152 18.4245 68.808 14.0725 66.12C9.7205 63.368 6.2965 59.4 3.8005 54.216C1.3045 49.032 0.0565001 42.76 0.0565001 35.4C0.0565001 28.04 1.3045 21.768 3.8005 16.584C6.2965 11.4 9.7205 7.464 14.0725 4.776C18.4245 2.024 23.3525 0.647999 28.8565 0.647999C34.4245 0.647999 39.3525 2.024 43.6405 4.776C47.9925 7.464 51.4165 11.4 53.9125 16.584C56.4085 21.768 57.6565 28.04 57.6565 35.4C57.6565 42.76 56.4085 49.032 53.9125 54.216C51.4165 59.4 47.9925 63.368 43.6405 66.12C39.3525 68.808 34.4245 70.152 28.8565 70.152ZM28.8565 57C31.4805 57 33.7525 56.264 35.6725 54.792C37.6565 53.32 39.1925 50.984 40.2805 47.784C41.4325 44.584 42.0085 40.456 42.0085 35.4C42.0085 30.344 41.4325 26.216 40.2805 23.016C39.1925 19.816 37.6565 17.48 35.6725 16.008C33.7525 14.536 31.4805 13.8 28.8565 13.8C26.2965 13.8 24.0245 14.536 22.0405 16.008C20.1205 17.48 18.5845 19.816 17.4325 23.016C16.3445 26.216 15.8005 30.344 15.8005 35.4C15.8005 40.456 16.3445 44.584 17.4325 47.784C18.5845 50.984 20.1205 53.32 22.0405 54.792C24.0245 56.264 26.2965 57 28.8565 57ZM75.2057 69V7.56L81.9258 14.28H61.7658V1.8H90.7578V69H75.2057Z" fill="#E4E4E4"/>
</svg>
