<svg width="116" height="71" viewBox="0 0 116 71" fill="none" xmlns="http://www.w3.org/2000/svg">
<path d="M28.8409 70.152C23.3369 70.152 18.4089 68.808 14.0569 66.12C9.70488 63.368 6.28088 59.4 3.78488 54.216C1.28888 49.032 0.0408751 42.76 0.0408751 35.4C0.0408751 28.04 1.28888 21.768 3.78488 16.584C6.28088 11.4 9.70488 7.464 14.0569 4.776C18.4089 2.024 23.3369 0.647999 28.8409 0.647999C34.4089 0.647999 39.3369 2.024 43.6249 4.776C47.9769 7.464 51.4009 11.4 53.8969 16.584C56.3929 21.768 57.6409 28.04 57.6409 35.4C57.6409 42.76 56.3929 49.032 53.8969 54.216C51.4009 59.4 47.9769 63.368 43.6249 66.12C39.3369 68.808 34.4089 70.152 28.8409 70.152ZM28.8409 57C31.4649 57 33.7369 56.264 35.6569 54.792C37.6409 53.32 39.1769 50.984 40.2649 47.784C41.4169 44.584 41.9929 40.456 41.9929 35.4C41.9929 30.344 41.4169 26.216 40.2649 23.016C39.1769 19.816 37.6409 17.48 35.6569 16.008C33.7369 14.536 31.4649 13.8 28.8409 13.8C26.2809 13.8 24.0089 14.536 22.0249 16.008C20.1049 17.48 18.5689 19.816 17.4169 23.016C16.3289 26.216 15.7849 30.344 15.7849 35.4C15.7849 40.456 16.3289 44.584 17.4169 47.784C18.5689 50.984 20.1049 53.32 22.0249 54.792C24.0089 56.264 26.2809 57 28.8409 57ZM64.2461 69V58.92L90.1661 34.44C92.2141 32.584 93.7181 30.92 94.6781 29.448C95.6381 27.976 96.2781 26.632 96.5981 25.416C96.9821 24.2 97.1741 23.08 97.1741 22.056C97.1741 19.368 96.2461 17.32 94.3901 15.912C92.5981 14.44 89.9421 13.704 86.4221 13.704C83.6061 13.704 80.9821 14.248 78.5501 15.336C76.1821 16.424 74.1661 18.12 72.5021 20.424L61.1741 13.128C63.7341 9.288 67.3181 6.248 71.9261 4.008C76.5341 1.768 81.8461 0.647999 87.8621 0.647999C92.8541 0.647999 97.2061 1.48 100.918 3.144C104.694 4.744 107.606 7.016 109.654 9.96C111.766 12.904 112.822 16.424 112.822 20.52C112.822 22.696 112.534 24.872 111.958 27.048C111.446 29.16 110.358 31.4 108.694 33.768C107.094 36.136 104.726 38.792 101.59 41.736L80.0861 61.992L77.1101 56.328H115.03V69H64.2461Z" fill="#E4E4E4"/>
</svg>
