<svg width="115" height="71" viewBox="0 0 115 71" fill="none" xmlns="http://www.w3.org/2000/svg">
<path d="M29.0284 70.152C23.5244 70.152 18.5964 68.808 14.2444 66.12C9.89238 63.368 6.46838 59.4 3.97238 54.216C1.47638 49.032 0.228375 42.76 0.228375 35.4C0.228375 28.04 1.47638 21.768 3.97238 16.584C6.46838 11.4 9.89238 7.464 14.2444 4.776C18.5964 2.024 23.5244 0.647999 29.0284 0.647999C34.5964 0.647999 39.5244 2.024 43.8124 4.776C48.1644 7.464 51.5884 11.4 54.0844 16.584C56.5804 21.768 57.8284 28.04 57.8284 35.4C57.8284 42.76 56.5804 49.032 54.0844 54.216C51.5884 59.4 48.1644 63.368 43.8124 66.12C39.5244 68.808 34.5964 70.152 29.0284 70.152ZM29.0284 57C31.6524 57 33.9244 56.264 35.8444 54.792C37.8284 53.32 39.3644 50.984 40.4524 47.784C41.6044 44.584 42.1804 40.456 42.1804 35.4C42.1804 30.344 41.6044 26.216 40.4524 23.016C39.3644 19.816 37.8284 17.48 35.8444 16.008C33.9244 14.536 31.6524 13.8 29.0284 13.8C26.4684 13.8 24.1964 14.536 22.2124 16.008C20.2924 17.48 18.7564 19.816 17.6044 23.016C16.5164 26.216 15.9724 30.344 15.9724 35.4C15.9724 40.456 16.5164 44.584 17.6044 47.784C18.7564 50.984 20.2924 53.32 22.2124 54.792C24.1964 56.264 26.4684 57 29.0284 57ZM86.2391 70.152C81.5671 70.152 76.9271 69.544 72.3191 68.328C67.7111 67.048 63.8071 65.256 60.6071 62.952L66.6551 51.048C69.2151 52.904 72.1911 54.376 75.5831 55.464C78.9751 56.552 82.3991 57.096 85.8551 57.096C89.7591 57.096 92.8311 56.328 95.0711 54.792C97.3111 53.256 98.4311 51.144 98.4311 48.456C98.4311 45.896 97.4391 43.88 95.4551 42.408C93.4711 40.936 90.2711 40.2 85.8551 40.2H78.7511V29.928L97.4711 8.712L99.1991 14.28H63.9671V1.8H111.007V11.88L92.3831 33.096L84.5111 28.584H89.0231C97.2791 28.584 103.519 30.44 107.743 34.152C111.967 37.864 114.079 42.632 114.079 48.456C114.079 52.232 113.087 55.784 111.103 59.112C109.119 62.376 106.079 65.032 101.983 67.08C97.8871 69.128 92.6391 70.152 86.2391 70.152Z" fill="#E4E4E4"/>
</svg>
