<svg width="127" height="71" viewBox="0 0 127 71" fill="none" xmlns="http://www.w3.org/2000/svg">
<path d="M28.8721 70.152C23.3681 70.152 18.4401 68.808 14.0881 66.12C9.73613 63.368 6.31213 59.4 3.81613 54.216C1.32013 49.032 0.0721251 42.76 0.0721251 35.4C0.0721251 28.04 1.32013 21.768 3.81613 16.584C6.31213 11.4 9.73613 7.464 14.0881 4.776C18.4401 2.024 23.3681 0.647999 28.8721 0.647999C34.4401 0.647999 39.3681 2.024 43.6561 4.776C48.0081 7.464 51.4321 11.4 53.9281 16.584C56.4241 21.768 57.6721 28.04 57.6721 35.4C57.6721 42.76 56.4241 49.032 53.9281 54.216C51.4321 59.4 48.0081 63.368 43.6561 66.12C39.3681 68.808 34.4401 70.152 28.8721 70.152ZM28.8721 57C31.4961 57 33.7681 56.264 35.6881 54.792C37.6721 53.32 39.2081 50.984 40.2961 47.784C41.4481 44.584 42.0241 40.456 42.0241 35.4C42.0241 30.344 41.4481 26.216 40.2961 23.016C39.2081 19.816 37.6721 17.48 35.6881 16.008C33.7681 14.536 31.4961 13.8 28.8721 13.8C26.3121 13.8 24.0401 14.536 22.0561 16.008C20.1361 17.48 18.6001 19.816 17.4481 23.016C16.3601 26.216 15.8161 30.344 15.8161 35.4C15.8161 40.456 16.3601 44.584 17.4481 47.784C18.6001 50.984 20.1361 53.32 22.0561 54.792C24.0401 56.264 26.3121 57 28.8721 57ZM64.4604 54.888V44.424L96.1404 1.8H112.46L81.4524 44.424L73.8684 42.216H126.764V54.888H64.4604ZM100.652 69V54.888L101.132 42.216V29.64H115.82V69H100.652Z" fill="#E4E4E4"/>
</svg>
