<svg width="40" height="41" viewBox="0 0 40 41" fill="none" xmlns="http://www.w3.org/2000/svg">
<path d="M37.1696 19.0423C36.7562 18.9509 36.3255 18.9751 35.9246 19.1123C35.1637 16.3232 33.5649 13.8348 31.345 11.9839C31.0951 10.6416 31.3894 9.25503 32.1635 8.13036C32.2985 7.90584 32.3428 7.63767 32.2874 7.38197C32.232 7.12557 32.0818 6.90036 31.8664 6.75068C31.6511 6.601 31.3873 6.53933 31.1283 6.57814C28.511 6.91561 27.0106 8.13036 26.1693 9.23978C25.1861 8.9626 24.1759 8.79352 23.1567 8.73531C23.1387 8.73323 23.1206 8.73323 23.102 8.73531C24.0035 11.2293 24.0914 13.945 23.354 16.4923C22.6159 19.0396 21.0898 21.2868 18.9953 22.9118C16.9008 24.5361 14.3451 25.4543 11.6966 25.534C9.0482 25.613 6.44198 24.85 4.25398 23.3539C4.23667 23.3969 4.22905 23.4433 4.23044 23.4897C4.31699 25.3635 4.77675 27.2005 5.58271 28.8934C6.38797 30.5863 7.52421 32.1018 8.92218 33.3498C9.89432 34.1938 10.4593 35.4141 10.4732 36.7024V38.3634C10.4732 38.8734 10.8865 39.2871 11.3961 39.2871H17.0067C17.5163 39.2871 17.9297 38.8734 17.9297 38.3634V36.9317H22.3888V38.3557C22.3888 38.8658 22.8021 39.2795 23.3118 39.2795H28.9417C29.4513 39.2795 29.8647 38.8665 29.8647 38.3557V37.0911C29.855 35.753 30.4304 34.4773 31.4385 33.5986C33.6244 31.7429 35.1934 29.2642 35.9364 26.493C36.3373 26.6281 36.768 26.651 37.1813 26.5589C37.7069 26.4279 38.1735 26.123 38.5038 25.6927C38.8341 25.263 39.0086 24.7336 38.9996 24.1917V21.4213C39.0093 20.8759 38.8334 20.3437 38.5011 19.9113C38.168 19.4782 37.6986 19.1719 37.1696 19.0423ZM30.2635 19.2863C29.8938 19.2863 29.5399 19.1394 29.2789 18.8781C29.0179 18.6169 28.8711 18.2628 28.8711 17.8934C28.8711 17.5241 29.0179 17.1693 29.2789 16.908C29.5399 16.6468 29.8938 16.4999 30.2628 16.4999C30.6319 16.4999 30.9864 16.6468 31.2474 16.908C31.5084 17.1693 31.6552 17.5241 31.6552 17.8934C31.6573 18.2642 31.5119 18.6203 31.2502 18.8837C30.9891 19.147 30.6332 19.2946 30.2628 19.2946L30.2635 19.2863ZM11.3061 23.311C14.0391 23.311 16.6605 22.2244 18.593 20.2904C20.5255 18.3563 21.6119 15.7328 21.6126 12.9977C21.6126 10.2626 20.5276 7.63905 18.5951 5.70432C16.6626 3.76958 14.0418 2.68233 11.3089 2.68164C8.57598 2.68095 5.95453 3.76681 4.02133 5.70085C2.08814 7.6342 1.00106 10.257 1.00037 12.9928C1.00244 15.7279 2.08883 18.3508 4.02064 20.2855C5.95314 22.2196 8.5739 23.3082 11.3061 23.311ZM10.4489 7.73399V6.95788C10.4489 6.5033 10.8173 6.13464 11.2715 6.13464C11.725 6.13464 12.0934 6.5033 12.0934 6.95788V7.61341C12.6169 7.63074 13.1369 7.70489 13.6444 7.83516C14.1125 7.96405 14.4136 8.41794 14.3513 8.89954C14.289 9.38115 13.8812 9.74356 13.3965 9.74841C13.3058 9.74841 13.2158 9.73525 13.1292 9.70961C12.6473 9.56617 12.1467 9.4941 11.644 9.49618C10.5549 9.49618 10.2017 9.966 10.2017 10.4351C10.2017 10.9902 10.791 11.3436 12.2139 11.8786C14.2108 12.5847 15.0174 13.5084 15.0174 15.0218C15.0174 16.5352 13.9587 17.7923 12.0276 18.1263V19.0423C12.0276 19.4969 11.6593 19.8649 11.2057 19.8649C10.7515 19.8649 10.3838 19.4969 10.3838 19.0423V18.2662C9.69767 18.2267 9.01912 18.0965 8.36756 17.8782C7.88011 17.7202 7.59899 17.2116 7.72362 16.714L7.74301 16.6322C7.85864 16.2192 8.2367 15.9344 8.66599 15.9379C8.77539 15.9386 8.8841 15.9566 8.98796 15.9926C9.57166 16.195 10.1851 16.2996 10.8028 16.3031C11.7604 16.3031 12.4161 15.915 12.4161 15.263C12.4161 14.6109 11.8767 14.2228 10.6366 13.8001C8.84117 13.1952 7.6163 12.3567 7.6163 10.7269C7.61492 9.24741 8.65422 8.0867 10.4489 7.73399Z" fill="#828282"/>
</svg>
