<svg width="40" height="41" viewBox="0 0 40 41" fill="none" xmlns="http://www.w3.org/2000/svg">
<path d="M37.9611 9.28031C32.0872 8.68047 30.369 5.36132 30.2891 5.20136C30.0893 4.80146 29.6898 4.56152 29.2902 4.56152C28.8506 4.56152 28.4511 4.80146 28.2513 5.24135C28.2513 5.28134 26.573 8.72046 20.6193 9.3203C20.0599 9.36029 19.6204 9.88016 19.6204 10.44V16.5584C19.6204 18.358 20.1798 20.0376 20.9789 21.4772H22.7371C24.8549 21.4772 26.613 23.2367 26.613 25.3562C26.613 25.996 26.4931 26.5559 26.2134 27.0758C27.572 28.0755 28.6908 28.6354 28.8107 28.7153C28.9705 28.7953 29.1304 28.8353 29.3301 28.8353C29.49 28.8353 29.6898 28.7953 29.8496 28.7153C30.2092 28.5154 39 23.9166 39 16.5584V10.4C38.96 9.84017 38.5205 9.3203 37.9611 9.28031ZM33.7655 14.8789L28.8506 19.8376C28.6109 20.0376 28.3312 20.1575 28.0515 20.1575C27.7718 20.1575 27.4521 20.0376 27.2523 19.8376L24.7749 17.3582C24.3354 16.9184 24.3354 16.1985 24.7749 15.7587C25.2145 15.3188 25.9337 15.3188 26.3733 15.7587L28.0115 17.3982L32.1672 13.2393C32.6067 12.7994 33.3259 12.7994 33.7655 13.2393C34.245 13.7192 34.245 14.439 33.7655 14.8789Z" fill="#828282"/>
<path d="M24.3356 25.3165C24.3356 24.4367 23.6163 23.7169 22.7372 23.7169C21.8582 23.7169 17.4228 23.7569 16.5038 23.7569C16.0243 23.7569 15.6647 23.277 15.8245 22.7972C16.304 21.3575 17.1431 18.7582 17.303 17.9584C17.6626 15.9589 14.5858 15.3591 13.9864 16.9187C13.3871 18.3583 11.1095 22.8371 8.4323 24.4767C8.11263 24.6767 7.91284 25.0366 7.91284 25.3965V34.4742C7.91284 34.994 10.0706 36.5536 13.0674 36.5536H21.5385C22.4176 36.5536 23.1368 35.8338 23.1368 34.954C23.1368 34.1942 22.6174 33.5944 21.9381 33.3944C21.8981 33.3944 21.8981 33.3545 21.9381 33.3545C22.8172 33.3545 23.5364 32.6346 23.5364 31.7549C23.5364 30.9951 23.0169 30.3552 22.3377 30.1953C22.2977 30.1953 22.2977 30.1553 22.3377 30.1553C23.2167 30.1553 23.936 29.4355 23.936 28.5557C23.936 27.7959 23.4165 27.156 22.7372 26.9961C22.6973 26.9961 22.6973 26.9561 22.7372 26.9561C23.6163 26.9161 24.3356 26.1963 24.3356 25.3165Z" fill="#828282"/>
<path d="M4.59621 24.2363H1.99895C1.43954 24.2363 1 24.6762 1 25.2361V34.7936C1 35.3535 1.43954 35.7934 1.99895 35.7934H4.59621C5.15563 35.7934 5.59516 35.3535 5.59516 34.7936V25.2361C5.59516 24.6762 5.15563 24.2363 4.59621 24.2363Z" fill="#828282"/>
</svg>
