<svg width="40" height="41" viewBox="0 0 40 41" fill="none" xmlns="http://www.w3.org/2000/svg">
<path d="M26.4952 20.3414H13.8588C13.3349 20.3414 12.9113 20.766 12.9113 21.2904V39.1107H27.4435V21.2904C27.4435 20.7667 27.0185 20.3414 26.4952 20.3414Z" fill="#828282"/>
<path d="M26.8407 8.7485L22.8966 8.12514L21.1736 4.25526C21.0078 3.90174 20.5925 3.63189 20.1773 3.65281C19.8449 3.65281 19.5335 3.81946 19.3057 4.23504L17.4991 8.04286L13.555 8.56233C12.7043 8.68714 12.3301 9.72608 12.953 10.3285L15.7761 13.1539L15.0494 17.0809C14.8829 17.9323 15.7761 18.5975 16.5439 18.2029L20.0937 16.3948L20.1766 16.436L23.6024 18.2851C24.3499 18.7007 25.2633 18.0773 25.1177 17.2253L24.4949 13.278L27.38 10.5147C28.0245 9.93247 27.6921 8.87262 26.8407 8.7485Z" fill="#828282"/>
<path d="M10.0045 18.8918L7.50255 18.4971L6.4094 16.0427C6.3035 15.8189 6.04083 15.6474 5.77747 15.6606C5.56706 15.6606 5.36919 15.7666 5.22428 16.0295L4.07887 18.4448L1.57764 18.7746C1.03838 18.8541 0.800796 19.5123 1.19584 19.8952L2.98711 21.6865L2.52657 24.1771C2.42067 24.7168 2.98711 25.1387 3.47481 24.8883L5.72592 23.742L5.77817 23.7685L7.95054 24.9413C8.42431 25.2049 9.00399 24.8096 8.91132 24.2699L8.51628 21.7666L10.3466 20.0144C10.7548 19.6427 10.5437 18.9713 10.0045 18.8918Z" fill="#828282"/>
<path d="M38.1465 22.0895L35.995 21.7492L35.0551 19.6392C34.9646 19.4461 34.7381 19.299 34.5117 19.3108C34.3306 19.3108 34.1606 19.4015 34.0365 19.6281L33.0514 21.7053L30.8999 21.9884C30.4359 22.0567 30.2317 22.6229 30.5717 22.952L32.1115 24.493L31.7151 26.6343C31.6245 27.0987 32.1115 27.4613 32.5302 27.2465L34.4664 26.2606L34.5117 26.2829L36.3803 27.2911C36.7886 27.5178 37.286 27.1775 37.2066 26.7131L36.8666 24.5599L38.4405 23.0531C38.7917 22.7358 38.6105 22.1578 38.1465 22.0895Z" fill="#828282"/>
<path d="M9.37871 26.575H2.30212C1.77818 26.575 1.35388 26.9997 1.35388 27.524V39.1107H10.3269V27.524C10.3269 26.9997 9.90265 26.575 9.37871 26.575Z" fill="#828282"/>
<path d="M38.0525 28.6522H30.9752C30.4513 28.6522 30.027 29.0769 30.027 29.6012V39.1107H39V29.6012C39 29.0769 38.5757 28.6522 38.0525 28.6522Z" fill="#828282"/>
</svg>
