<svg width="56" height="56" viewBox="0 0 56 56" fill="none" xmlns="http://www.w3.org/2000/svg">
<g clip-path="url(#clip0_86_1098)">
<path d="M28.0031 42.7038C28.7891 42.7038 29.4266 42.0663 29.4266 41.2803V17.4949L36.3519 22.5055C36.9894 22.9661 37.8791 22.8228 38.3397 22.1863C38.8003 21.5488 38.6569 20.6591 38.0204 20.1985L28.8359 13.5559C28.3386 13.1949 27.6666 13.1949 27.1694 13.5559L17.9868 20.1985C17.6818 20.4201 17.4764 20.7536 17.4164 21.1258C17.3564 21.4979 17.448 21.8792 17.6686 22.1842C18.1292 22.8207 19.0179 22.9631 19.6544 22.5025L26.5786 17.4949V41.2803C26.5796 42.0663 27.2171 42.7038 28.0031 42.7038Z" fill="#828282"/>
<path d="M28.0031 5.10712e-05C22.1668 -0.0111335 16.4738 1.815 11.7336 5.21917C11.394 5.42456 11.1571 5.76314 11.0778 6.15155C10.9985 6.53996 11.0849 6.94464 11.3157 7.26696C11.5476 7.58927 11.9024 7.80076 12.2959 7.84957C12.6894 7.89837 13.0859 7.78144 13.3889 7.52623C18.4769 3.89634 24.7341 2.29288 30.9405 3.02801C37.1469 3.76314 42.8572 6.78399 46.9558 11.5018C51.0544 16.2197 53.2486 22.2959 53.1093 28.544C52.97 34.7921 50.5074 40.7647 46.2034 45.2954C41.8983 49.8262 36.06 52.5908 29.8272 53.0483C23.5943 53.5059 17.4144 51.6259 12.4932 47.7733C7.57197 43.9207 4.26338 38.3732 3.21203 32.2126C2.16068 26.0519 3.44284 19.7204 6.80735 14.4535C7.23033 13.7906 7.03714 12.9111 6.3742 12.4871C5.71127 12.0631 4.83175 12.2573 4.40776 12.9192C1.05951 18.1587 -0.450402 24.363 0.11696 30.5552C0.684321 36.7464 3.29642 42.5735 7.54146 47.1165C11.7865 51.6594 17.4225 54.6599 23.5618 55.6452C29.7011 56.6305 35.9929 55.5456 41.4459 52.5593C46.8999 49.573 51.2039 44.8572 53.6808 39.1541C56.1576 33.451 56.666 27.086 55.1256 21.0626C53.5842 15.0392 50.0824 9.69909 45.1714 5.88617C40.2603 2.07326 34.2207 0.00208462 28.0031 0.00106785V5.10712e-05Z" fill="#828282"/>
</g>
<defs>
<clipPath id="clip0_86_1098">
<rect width="55.998" height="56" fill="white"/>
</clipPath>
</defs>
</svg>
