<svg width="30" height="28" viewBox="0 0 30 28" fill="none" xmlns="http://www.w3.org/2000/svg">
<path d="M15.6757 6.50892C15.6757 7.40458 14.9499 8.13038 14.0542 8.13038C13.1585 8.13038 12.4327 7.40458 12.4327 6.50892C12.4327 5.61325 13.1585 4.88745 14.0542 4.88745C14.9499 4.88745 15.6757 5.61387 15.6757 6.50892Z" fill="#0075FF"/>
<path d="M15.473 22.9675C14.4612 22.5747 13.5056 22.0508 12.6304 21.4097C12.358 21.9119 12.3697 22.5209 12.6619 23.012C12.954 23.5031 13.4828 23.8045 14.0548 23.8045C14.3445 23.8033 14.6286 23.7254 14.8776 23.5784C15.1265 23.4314 15.3322 23.2208 15.473 22.9675Z" fill="#0075FF"/>
<path d="M14.0541 24.8857C13.4042 24.8857 12.7767 24.6522 12.2856 24.2272C11.7945 23.8023 11.4727 23.2148 11.3788 22.5724C11.2855 21.9294 11.4264 21.2746 11.7766 20.7274C9.88828 19.0775 8.54169 16.8958 7.91411 14.4676C7.10677 14.748 6.21419 14.63 5.50754 14.1494C4.80089 13.6689 4.36294 12.8825 4.32711 12.0289C4.29067 11.1752 4.66129 10.3543 5.3247 9.81627C5.98873 9.27826 6.86772 9.08492 7.69606 9.29679C7.98514 7.57402 8.63743 5.93278 9.61031 4.48242C6.93258 4.89443 4.4908 6.25275 2.7285 8.31032C0.9662 10.3679 -0.00173837 12.9882 0.00135014 15.6974C0.00135014 21.956 5.09306 27.0477 11.3516 27.0477C14.3308 27.052 17.1907 25.8808 19.3119 23.7887C18.3619 23.7393 17.4205 23.5805 16.507 23.3155C16.2889 23.7825 15.9424 24.1778 15.5087 24.4558C15.0739 24.7344 14.5698 24.8832 14.0541 24.8857ZM0.541839 15.1569C0.541839 14.727 0.712942 14.3144 1.01685 14.0105C1.32076 13.7066 1.73339 13.5355 2.16331 13.5355C2.59323 13.5355 3.00585 13.7066 3.30976 14.0105C3.61367 14.3144 3.78477 14.727 3.78477 15.1569C3.78477 15.5868 3.61367 15.9995 3.30976 16.3034C3.00585 16.6073 2.59323 16.7784 2.16331 16.7784C1.73339 16.7784 1.32076 16.6073 1.01685 16.3034C0.712942 15.9995 0.541839 15.5875 0.541839 15.1569ZM4.86575 22.7238C4.14922 22.7238 3.46171 22.439 2.95458 21.9325C2.44807 21.426 2.16331 20.7385 2.16331 20.0213C2.16331 19.3042 2.44807 18.6173 2.95458 18.1102C3.46171 17.6036 4.14922 17.3189 4.86575 17.3189C5.58228 17.3189 6.26978 17.6036 6.77692 18.1102C7.28343 18.6173 7.56819 19.3048 7.56819 20.0213C7.56819 20.7379 7.28343 21.4254 6.77692 21.9325C6.26978 22.4396 5.58228 22.7238 4.86575 22.7238ZM9.18966 25.4262C8.75974 25.4262 8.34712 25.2551 8.04321 24.9512C7.7393 24.6473 7.56819 24.2347 7.56819 23.8047C7.56819 23.3748 7.7393 22.9622 8.04321 22.6583C8.34712 22.3544 8.75974 22.1833 9.18966 22.1833C9.61958 22.1833 10.0322 22.3544 10.3361 22.6583C10.64 22.9622 10.8111 23.3748 10.8111 23.8047C10.8111 24.2347 10.64 24.6473 10.3361 24.9512C10.0322 25.2551 9.61958 25.4262 9.18966 25.4262Z" fill="#0075FF"/>
<path d="M7.02747 10.2922C6.53763 10.2916 6.07374 10.5128 5.7655 10.8933C5.45727 11.2738 5.33744 11.7735 5.43936 12.2522C5.54128 12.7309 5.85445 13.138 6.29117 13.3597C6.72788 13.5815 7.24119 13.5939 7.68841 13.3931C7.57846 12.7254 7.52348 12.0496 7.52348 11.3732C7.52348 11.0409 7.53645 10.7104 7.56178 10.3824C7.39068 10.3231 7.20969 10.2929 7.02747 10.2922Z" fill="#0075FF"/>
<path d="M2.70354 15.1569C2.70354 15.4553 2.4614 15.6974 2.16305 15.6974C1.8647 15.6974 1.62256 15.4553 1.62256 15.1569C1.62256 14.8586 1.8647 14.6165 2.16305 14.6165C2.4614 14.6165 2.70354 14.8586 2.70354 15.1569Z" fill="#0075FF"/>
<path d="M26.4853 11.9138C26.6706 11.9151 26.8553 11.8922 27.0345 11.8465C27.0091 11.6007 26.9918 11.3499 26.985 11.0941V10.8359V10.6272C26.9949 10.1515 27.0413 9.67713 27.124 9.2083H27.1172C27.0209 9.20336 26.9245 9.19656 26.8288 9.18853L26.7306 9.17988C26.6632 9.17309 26.5953 9.16568 26.5279 9.15765L26.426 9.14467C26.347 9.13356 26.2679 9.12244 26.1901 9.10947L26.1351 9.10082C26.0406 9.08476 25.9467 9.06623 25.8534 9.04646L25.7719 9.02793C25.7008 9.01249 25.6298 8.99581 25.5606 8.9779L25.4809 8.95751C25.3932 8.93466 25.3068 8.90995 25.2203 8.884L25.2067 8.87968C25.1079 8.85003 25.0115 8.81729 24.9157 8.78394L24.896 8.77714C24.8064 8.74502 24.7187 8.70981 24.6316 8.67646L24.6174 8.6709C24.232 9.33925 24.2313 10.162 24.6168 10.8304C25.0022 11.4994 25.7138 11.912 26.4853 11.9138Z" fill="#0075FF"/>
<path d="M9.73015 23.8046C9.73015 24.103 9.48801 24.3451 9.18966 24.3451C8.89131 24.3451 8.64917 24.103 8.64917 23.8046C8.64917 23.5063 8.89131 23.2642 9.18966 23.2642C9.48801 23.2642 9.73015 23.5063 9.73015 23.8046Z" fill="#0075FF"/>
<path d="M6.4872 20.0211C6.4872 20.9168 5.7614 21.6426 4.86573 21.6426C3.97006 21.6426 3.24426 20.9168 3.24426 20.0211C3.24426 19.1255 3.97006 18.3997 4.86573 18.3997C5.7614 18.3997 6.4872 19.1261 6.4872 20.0211Z" fill="#0075FF"/>
<path d="M20.5397 8.67086C20.5397 8.96921 20.2976 9.21135 19.9992 9.21135C19.7009 9.21135 19.4587 8.96921 19.4587 8.67086C19.4587 8.37251 19.7009 8.13037 19.9992 8.13037C20.2976 8.13037 20.5397 8.37251 20.5397 8.67086Z" fill="#0075FF"/>
<path d="M19.459 18.9401C19.459 19.2385 19.2169 19.4806 18.9185 19.4806C18.6202 19.4806 18.3781 19.2385 18.3781 18.9401C18.3781 18.6418 18.6202 18.3997 18.9185 18.3997C19.2169 18.3997 19.459 18.6418 19.459 18.9401Z" fill="#0075FF"/>
<path d="M25.4046 16.2379C25.4046 17.1336 24.6788 17.8594 23.7831 17.8594C22.8874 17.8594 22.1616 17.1336 22.1616 16.2379C22.1616 15.3423 22.8874 14.6165 23.7831 14.6165C24.6788 14.6165 25.4046 15.3429 25.4046 16.2379Z" fill="#0075FF"/>
<path d="M17.8373 12.9948C17.8373 13.2932 17.5952 13.5353 17.2968 13.5353C16.9985 13.5353 16.7563 13.2932 16.7563 12.9948C16.7563 12.6965 16.9985 12.4543 17.2968 12.4543C17.5952 12.4543 17.8373 12.6965 17.8373 12.9948Z" fill="#0075FF"/>
<path d="M27.2117 12.912C26.9733 12.967 26.7299 12.9948 26.4853 12.9948C25.3364 12.9942 24.2739 12.3858 23.6914 11.3956C23.1089 10.4054 23.0941 9.18113 23.6519 8.17675C23.6037 8.14648 23.5555 8.11621 23.508 8.08471C22.5907 7.47689 21.9705 6.68624 21.7129 5.81404C20.2558 6.19022 18.7072 5.87087 17.5181 4.94926C16.3284 4.02765 15.6323 2.60817 15.6329 1.10345C15.6329 1.02624 15.6329 0.949642 15.6384 0.873047C13.9354 1.56981 12.4276 2.67179 11.2472 4.08324C11.2157 4.14007 11.1743 4.1901 11.1249 4.23272C9.76224 5.91905 8.91229 7.96179 8.67756 10.1176V10.1361C8.63309 10.5475 8.61023 10.9601 8.61023 11.374C8.61023 17.6325 13.7019 22.7242 19.9605 22.7242C22.0267 22.7211 24.0528 22.1553 25.8219 21.0873C27.5903 20.0193 29.0351 18.4899 30 16.6627C28.6966 16.2569 27.6533 14.83 27.2117 12.912ZM19.9994 7.04944C20.4293 7.04944 20.842 7.22055 21.1459 7.52446C21.4498 7.82837 21.6209 8.24099 21.6209 8.67091C21.6209 9.10083 21.4498 9.51345 21.1459 9.81736C20.842 10.1213 20.4293 10.2924 19.9994 10.2924C19.5695 10.2924 19.1569 10.1213 18.853 9.81736C18.549 9.51345 18.3779 9.10083 18.3779 8.67091C18.3779 8.24099 18.549 7.82837 18.853 7.52446C19.1569 7.22055 19.5695 7.04944 19.9994 7.04944ZM14.054 3.80651C14.7706 3.80651 15.4581 4.09127 15.9652 4.59779C16.4717 5.10492 16.7565 5.79242 16.7565 6.50896C16.7565 7.22549 16.4717 7.91299 15.9652 8.42012C15.4581 8.92664 14.7706 9.2114 14.054 9.2114C13.3375 9.2114 12.65 8.92664 12.1429 8.42012C11.6363 7.91299 11.3516 7.22549 11.3516 6.50896C11.3516 5.79242 11.6363 5.10492 12.1429 4.59779C12.65 4.09127 13.3369 3.80651 14.054 3.80651ZM11.8921 16.2378C11.1755 16.2378 10.488 15.953 9.98091 15.4465C9.47439 14.9393 9.18963 14.2518 9.18963 13.5353C9.18963 12.8188 9.47439 12.1313 9.98091 11.6241C10.488 11.1176 11.1755 10.8329 11.8921 10.8329C12.6086 10.8329 13.2961 11.1176 13.8032 11.6241C14.3098 12.1313 14.5945 12.8188 14.5945 13.5353C14.5945 14.2518 14.3098 14.9393 13.8032 15.4465C13.2961 15.953 12.6086 16.2378 11.8921 16.2378ZM15.6755 12.9948C15.6755 12.5649 15.8466 12.1523 16.1505 11.8484C16.4544 11.5445 16.867 11.3734 17.297 11.3734C17.7269 11.3734 18.1395 11.5445 18.4434 11.8484C18.7473 12.1523 18.9184 12.5649 18.9184 12.9948C18.9184 13.4247 18.7473 13.8374 18.4434 14.1413C18.1395 14.4452 17.7269 14.6163 17.297 14.6163C16.867 14.6163 16.4544 14.4452 16.1505 14.1413C15.8466 13.8374 15.6755 13.4247 15.6755 12.9948ZM18.9184 20.5617C18.4885 20.5617 18.0759 20.3906 17.772 20.0867C17.4681 19.7827 17.297 19.3701 17.297 18.9402C17.297 18.5103 17.4681 18.0977 17.772 17.7937C18.0759 17.4898 18.4885 17.3187 18.9184 17.3187C19.3484 17.3187 19.761 17.4898 20.0649 17.7937C20.3688 18.0977 20.5399 18.5103 20.5399 18.9402C20.5399 19.3701 20.3688 19.7827 20.0649 20.0867C19.761 20.3906 19.3484 20.5617 18.9184 20.5617ZM23.7828 18.9402C23.0663 18.9402 22.3788 18.6554 21.8717 18.1489C21.3651 17.6418 21.0804 16.9543 21.0804 16.2378C21.0804 15.5212 21.3651 14.8337 21.8717 14.3266C22.3788 13.8201 23.0663 13.5353 23.7828 13.5353C24.4994 13.5353 25.1869 13.8201 25.694 14.3266C26.2005 14.8337 26.4853 15.5212 26.4853 16.2378C26.4853 16.9543 26.2005 17.6418 25.694 18.1489C25.1869 18.6554 24.4994 18.9402 23.7828 18.9402Z" fill="#0075FF"/>
<path d="M13.5138 13.5353C13.5138 14.431 12.788 15.1568 11.8923 15.1568C10.9967 15.1568 10.2709 14.431 10.2709 13.5353C10.2709 12.6396 10.9967 11.9138 11.8923 11.9138C12.788 11.9138 13.5138 12.6402 13.5138 13.5353Z" fill="#0075FF"/>
</svg>
