<svg width="24" height="24" viewBox="0 0 24 24" fill="none" xmlns="http://www.w3.org/2000/svg">
<path d="M20.6429 1H3.35714C2.73199 1 2.13244 1.24834 1.69039 1.69039C1.24834 2.13244 1 2.73199 1 3.35714V20.6429C1 21.268 1.24834 21.8676 1.69039 22.3096C2.13244 22.7517 2.73199 23 3.35714 23H10.0971V15.5205H7.00335V12H10.0971V9.31679C10.0971 6.26478 11.9141 4.57893 14.697 4.57893C16.0297 4.57893 17.4234 4.81661 17.4234 4.81661V7.81214H15.8878C14.3748 7.81214 13.9029 8.75107 13.9029 9.71406V12H17.2805L16.7403 15.5205H13.9029V23H20.6429C21.268 23 21.8676 22.7517 22.3096 22.3096C22.7517 21.8676 23 21.268 23 20.6429V3.35714C23 2.73199 22.7517 2.13244 22.3096 1.69039C21.8676 1.24834 21.268 1 20.6429 1Z" fill="#3D3D3D"/>
</svg>
