<svg width="24" height="24" viewBox="0 0 24 24" fill="none" xmlns="http://www.w3.org/2000/svg">
<path d="M12 8.33333C9.97496 8.33333 8.33333 9.97496 8.33333 12C8.33333 14.025 9.97496 15.6667 12 15.6667C14.025 15.6667 15.6667 14.025 15.6667 12C15.6667 9.97496 14.025 8.33333 12 8.33333Z" fill="#3D3D3D"/>
<path fill-rule="evenodd" clip-rule="evenodd" d="M7.6 1C3.95492 1 1 3.95492 1 7.6V16.4C1 20.0451 3.95492 23 7.6 23H16.4C20.0451 23 23 20.0451 23 16.4V7.6C23 3.95492 20.0451 1 16.4 1H7.6ZM6.86667 12C6.86667 9.16494 9.16494 6.86667 12 6.86667C14.8351 6.86667 17.1333 9.16494 17.1333 12C17.1333 14.8351 14.8351 17.1333 12 17.1333C9.16494 17.1333 6.86667 14.8351 6.86667 12ZM17.1333 6.86667H18.6V5.4H17.1333V6.86667Z" fill="#3D3D3D"/>
</svg>
