<svg width="192" height="84" viewBox="0 0 192 84" fill="none" xmlns="http://www.w3.org/2000/svg">
<path d="M32.4755 61.2718C30.3243 61.2718 28.5947 60.9962 27.2867 60.4449V57.9641C28.0267 58.2398 28.8184 58.4637 29.6617 58.636C30.5222 58.8083 31.3741 58.8944 32.2174 58.8944C33.5426 58.8944 34.5321 58.7394 35.1861 58.4293C35.8573 58.1192 36.1929 57.499 36.1929 56.5687C36.1929 56.0002 36.0552 55.5437 35.7799 55.1991C35.5045 54.8546 35.0485 54.5617 34.4117 54.3205C33.7749 54.0621 32.8972 53.7951 31.7785 53.5195C29.9887 53.0543 28.7324 52.4686 28.0095 51.7623C27.2867 51.0387 26.9253 50.0481 26.9253 48.7905C26.9253 47.3262 27.4588 46.1806 28.5258 45.3536C29.5929 44.5267 31.1848 44.1133 33.3016 44.1133C34.2654 44.1133 35.1689 44.1822 36.0122 44.32C36.8727 44.4578 37.5439 44.6129 38.0258 44.7851V47.2659C36.7178 46.7663 35.2722 46.5165 33.6889 46.5165C32.4497 46.5165 31.486 46.6802 30.7976 47.0075C30.1092 47.3348 29.765 47.9291 29.765 48.7905C29.765 49.2901 29.8854 49.695 30.1264 50.0051C30.3673 50.3151 30.7804 50.5822 31.3655 50.8061C31.9678 51.0301 32.7939 51.2799 33.8437 51.5555C35.2033 51.9001 36.2532 52.3135 36.9932 52.7959C37.7504 53.261 38.2753 53.8123 38.5679 54.4497C38.8777 55.0699 39.0326 55.7763 39.0326 56.5687C39.0326 58.0331 38.4905 59.1873 37.4062 60.0314C36.322 60.8584 34.6784 61.2718 32.4755 61.2718Z" fill="#0075FF"/>
<path d="M41.7609 61.0134V48.7647H44.3424L44.4715 50.0567C45.0739 49.5744 45.7365 49.1954 46.4593 48.9197C47.1821 48.6441 47.9566 48.5063 48.7826 48.5063C49.6604 48.5063 50.3401 48.6527 50.822 48.9456C51.3211 49.2212 51.6997 49.6088 51.9579 50.1084C52.5258 49.6433 53.1798 49.2643 53.9198 48.9714C54.6599 48.6613 55.5462 48.5063 56.5788 48.5063C57.99 48.5063 59.0312 48.868 59.7024 49.5916C60.3736 50.3151 60.7092 51.4263 60.7092 52.9251V61.0134H57.947V53.2094C57.947 52.2618 57.7491 51.5986 57.3533 51.2196C56.9574 50.8406 56.312 50.6511 55.4171 50.6511C54.832 50.6511 54.2727 50.7544 53.7391 50.9612C53.2228 51.1679 52.7754 51.478 52.3968 51.8915C52.4484 52.081 52.4828 52.2791 52.5 52.4858C52.5172 52.6925 52.5258 52.9165 52.5258 53.1577V61.0134H49.9185V53.2352C49.9185 52.3394 49.7636 51.6847 49.4538 51.2713C49.1441 50.8578 48.5589 50.6511 47.6984 50.6511C47.096 50.6511 46.5195 50.7975 45.9688 51.0904C45.4353 51.366 44.9534 51.702 44.5231 52.0982V61.0134H41.7609Z" fill="#0075FF"/>
<path d="M67.3127 61.2718C66.5382 61.2718 65.8154 61.134 65.1442 60.8584C64.4902 60.5827 63.9653 60.1693 63.5695 59.618C63.1736 59.0495 62.9757 58.3518 62.9757 57.5248C62.9757 56.3534 63.3715 55.4145 64.1632 54.7081C64.9721 53.9846 66.2112 53.6228 67.8806 53.6228H71.8045V53.0802C71.8045 52.4944 71.7098 52.0293 71.5205 51.6847C71.3484 51.3402 71.0214 51.0904 70.5395 50.9353C70.0749 50.7803 69.3865 50.7028 68.4743 50.7028C67.0287 50.7028 65.6777 50.9181 64.4214 51.3488V49.2557C64.9721 49.0317 65.6433 48.8508 66.4349 48.713C67.2266 48.5752 68.0785 48.5063 68.9906 48.5063C70.7805 48.5063 72.1401 48.868 73.0694 49.5916C74.016 50.3151 74.4893 51.4952 74.4893 53.1318V61.0134H72.0885L71.9077 59.773C71.4087 60.2554 70.7891 60.6258 70.0491 60.8842C69.3262 61.1426 68.4141 61.2718 67.3127 61.2718ZM68.0613 59.2562C68.9046 59.2562 69.636 59.1184 70.2556 58.8427C70.8923 58.5499 71.4087 58.1623 71.8045 57.6799V55.5351H67.9322C67.1061 55.5351 66.5038 55.6987 66.1252 56.0261C65.7637 56.3361 65.583 56.8185 65.583 57.4732C65.583 58.1106 65.7982 58.5671 66.2284 58.8427C66.6587 59.1184 67.2696 59.2562 68.0613 59.2562Z" fill="#0075FF"/>
<path d="M77.6097 61.0134V48.7647H80.1912L80.3461 50.1859C80.9312 49.8069 81.6282 49.4624 82.4371 49.1523C83.246 48.8422 84.0462 48.6269 84.8379 48.5063V50.6511C84.356 50.7372 83.8311 50.8664 83.2632 51.0387C82.7125 51.1937 82.1875 51.3746 81.6884 51.5814C81.1894 51.7709 80.7677 51.969 80.4235 52.1757V61.0134H77.6097Z" fill="#0075FF"/>
<path d="M91.5595 61.2718C90.2515 61.2718 89.2706 60.9273 88.6166 60.2382C87.9798 59.5318 87.6614 58.5757 87.6614 57.3698V50.9612H85.8544V48.7647H87.6614V45.948L90.4495 45.0952V48.7647H93.7022L93.5215 50.9612H90.4495V57.2147C90.4495 57.9211 90.613 58.4207 90.9399 58.7135C91.2669 58.9892 91.8005 59.127 92.5405 59.127C93.0052 59.127 93.4956 59.0409 94.0119 58.8686V60.8584C93.3408 61.134 92.5233 61.2718 91.5595 61.2718Z" fill="#0075FF"/>
<path d="M109.91 61.2718C107.174 61.2718 105.1 60.5224 103.689 59.0236C102.295 57.5248 101.598 55.5006 101.598 52.9509C101.598 51.1248 101.89 49.5571 102.475 48.2479C103.078 46.9213 103.99 45.9049 105.212 45.1986C106.434 44.475 107.991 44.1133 109.884 44.1133C110.848 44.1133 111.726 44.1908 112.517 44.3458C113.326 44.4836 114.075 44.6732 114.763 44.9143V47.3693C114.075 47.0936 113.335 46.8869 112.543 46.7491C111.769 46.594 110.951 46.5165 110.091 46.5165C108.026 46.5165 106.563 47.0678 105.702 48.1703C104.859 49.2729 104.437 50.8664 104.437 52.9509C104.437 54.8977 104.902 56.3792 105.831 57.3956C106.761 58.3948 108.198 58.8944 110.142 58.8944C110.934 58.8944 111.726 58.8341 112.517 58.7135C113.326 58.5757 114.083 58.369 114.789 58.0933V60.5741C114.101 60.7981 113.352 60.9703 112.543 61.0909C111.752 61.2115 110.874 61.2718 109.91 61.2718Z" fill="#0075FF"/>
<path d="M120.563 61.2718C119.565 61.2718 118.808 61.0306 118.292 60.5483C117.775 60.0487 117.517 59.2304 117.517 58.0933V43.5964H120.331V57.8349C120.331 58.3173 120.417 58.6446 120.589 58.8169C120.761 58.9892 121.019 59.0753 121.364 59.0753C121.777 59.0753 122.173 59.0236 122.551 58.9203V60.9617C122.224 61.0823 121.906 61.1598 121.596 61.1943C121.303 61.246 120.959 61.2718 120.563 61.2718Z" fill="#0075FF"/>
<path d="M130.948 61.2718C128.814 61.2718 127.162 60.7464 125.992 59.6955C124.821 58.6446 124.236 57.0339 124.236 54.8632C124.236 52.8993 124.735 51.3488 125.733 50.2118C126.732 49.0748 128.246 48.5063 130.277 48.5063C132.136 48.5063 133.53 48.9972 134.459 49.9792C135.406 50.9439 135.879 52.1929 135.879 53.7262V56.0002H126.921C127.059 57.1889 127.489 58.0072 128.212 58.4551C128.935 58.903 130.036 59.127 131.516 59.127C132.136 59.127 132.772 59.0667 133.426 58.9461C134.08 58.8255 134.648 58.6705 135.13 58.481V60.5483C134.579 60.7894 133.943 60.9703 133.22 61.0909C132.514 61.2115 131.757 61.2718 130.948 61.2718ZM126.921 54.1655H133.401V53.3127C133.401 52.4686 133.168 51.8139 132.704 51.3488C132.239 50.8664 131.456 50.6252 130.354 50.6252C129.046 50.6252 128.143 50.9095 127.644 51.478C127.162 52.0465 126.921 52.9423 126.921 54.1655Z" fill="#0075FF"/>
<path d="M142.439 61.2718C141.664 61.2718 140.941 61.134 140.27 60.8584C139.616 60.5827 139.091 60.1693 138.695 59.618C138.3 59.0495 138.102 58.3518 138.102 57.5248C138.102 56.3534 138.498 55.4145 139.289 54.7081C140.098 53.9846 141.337 53.6228 143.007 53.6228H146.931V53.0802C146.931 52.4944 146.836 52.0293 146.647 51.6847C146.474 51.3402 146.147 51.0904 145.666 50.9353C145.201 50.7803 144.513 50.7028 143.6 50.7028C142.155 50.7028 140.804 50.9181 139.547 51.3488V49.2557C140.098 49.0317 140.769 48.8508 141.561 48.713C142.353 48.5752 143.205 48.5063 144.117 48.5063C145.907 48.5063 147.266 48.868 148.195 49.5916C149.142 50.3151 149.615 51.4952 149.615 53.1318V61.0134H147.214L147.034 59.773C146.535 60.2554 145.915 60.6258 145.175 60.8842C144.452 61.1426 143.54 61.2718 142.439 61.2718ZM143.187 59.2562C144.031 59.2562 144.762 59.1184 145.382 58.8427C146.018 58.5499 146.535 58.1623 146.931 57.6799V55.5351H143.058C142.232 55.5351 141.63 55.6987 141.251 56.0261C140.89 56.3361 140.709 56.8185 140.709 57.4732C140.709 58.1106 140.924 58.5671 141.354 58.8427C141.785 59.1184 142.396 59.2562 143.187 59.2562Z" fill="#0075FF"/>
<path d="M152.736 61.0134V48.7647H155.317L155.446 50.0567C155.997 49.626 156.651 49.2643 157.408 48.9714C158.183 48.6613 159.035 48.5063 159.964 48.5063C161.547 48.5063 162.7 48.8767 163.423 49.6174C164.146 50.3582 164.507 51.5125 164.507 53.0802V61.0134H161.719V53.2094C161.719 52.2618 161.521 51.5986 161.126 51.2196C160.747 50.8406 160.024 50.6511 158.957 50.6511C158.32 50.6511 157.692 50.7803 157.073 51.0387C156.47 51.2971 155.963 51.633 155.55 52.0465V61.0134H152.736Z" fill="#0075FF"/>
<path fill-rule="evenodd" clip-rule="evenodd" d="M141.019 19.397H32.2689C14.4473 19.397 0 33.8588 0 51.6985C0 69.5381 14.4473 84 32.2689 84H159.731C177.553 84 192 69.5381 192 51.6985C192 38.8334 184.487 27.7249 173.612 22.5301C172.551 23.1621 171.558 23.9076 170.649 24.7512C181.278 29.0706 188.773 39.5083 188.773 51.6985C188.773 67.7541 175.771 80.7698 159.731 80.7698H32.2689C16.2294 80.7698 3.22689 67.7541 3.22689 51.6985C3.22689 35.6428 16.2294 22.6271 32.2689 22.6271H152.745C151.178 21.6708 149.456 20.9635 147.624 20.5555L141.019 19.397Z" fill="#0075FF"/>
<path d="M173.323 17.7956L179.446 18.9206L173.276 19.9945C168.684 21.0172 165.144 24.9036 164.283 29.8128L163.135 37.8412L161.939 29.8128C161.078 24.9036 157.538 21.0172 152.946 19.9945L146.823 18.9206L152.994 17.8467C157.586 16.824 161.126 12.9376 161.987 8.02848L163.183 0L164.379 8.02848C165.192 12.9376 168.731 16.824 173.323 17.7956Z" fill="#0075FF"/>
</svg>
