<svg width="22" height="24" viewBox="0 0 22 24" fill="none" xmlns="http://www.w3.org/2000/svg">
<path d="M8.59998 10.3937C8.59998 9.07078 9.67491 7.9958 11 7.9958C12.325 7.9958 13.4 9.07078 13.4 10.3937C13.4 11.7166 12.325 12.7917 11 12.7917C9.67492 12.7917 8.59998 11.7166 8.59998 10.3937Z" fill="#0075FF"/>
<path fill-rule="evenodd" clip-rule="evenodd" d="M0.599976 10.3937C0.599976 4.65403 5.25784 0 11 0C16.7421 0 21.4 4.65403 21.4 10.3937C21.4 14.6722 19.2587 18.0617 16.9655 20.3535C15.8162 21.502 14.6123 22.3924 13.5812 23.0002C13.0659 23.3039 12.5842 23.5425 12.1656 23.7078C11.7703 23.8638 11.3554 23.9854 11 23.9854C10.6446 23.9854 10.2297 23.8638 9.83439 23.7078C9.41571 23.5425 8.9341 23.3039 8.41878 23.0002C7.38761 22.3924 6.18372 21.502 5.03447 20.3535C2.74124 18.0617 0.599976 14.6722 0.599976 10.3937ZM11 6.3958C8.79224 6.3958 6.99998 8.18613 6.99998 10.3937C6.99998 12.6013 8.79223 14.3917 11 14.3917C13.2077 14.3917 15 12.6013 15 10.3937C15 8.18613 13.2077 6.3958 11 6.3958Z" fill="#0075FF"/>
</svg>
