<svg width="40" height="40" viewBox="0 0 40 40" fill="none" xmlns="http://www.w3.org/2000/svg">
<g clip-path="url(#clip0_29_151)">
<path d="M20.6897 34.7996H3.44832V18.2479H26.8966V21.5354C26.8966 21.916 27.2056 22.225 27.5862 22.225C27.9669 22.225 28.2759 21.916 28.2759 21.5354V18.2479H29.6552H29.6694C30.0501 18.2479 30.3591 17.8585 30.3591 17.4778C30.3591 17.3202 30.3062 17.1342 30.2172 17.0183L24.7551 6.15486C24.6385 5.92156 24.3996 5.83407 24.1388 5.83407H15.1725V2.91388C15.1725 2.53319 14.8635 2.38501 14.4828 2.38501H8.96556C8.58487 2.38501 8.2759 2.53319 8.2759 2.91388V5.83329H6.20694C5.94526 5.83329 5.70723 5.90028 5.5898 6.13358L0.0725536 17.1279C-0.0346385 17.3415 -0.0228158 17.6559 0.102504 17.8593C0.228613 18.0626 0.450091 18.2471 0.689696 18.2471H2.06901V35.3277C2.06901 35.7084 2.37797 36.1781 2.75866 36.1781H20.6897C21.0704 36.1781 21.3794 35.8692 21.3794 35.4885C21.3794 35.1078 21.0704 34.7996 20.6897 34.7996ZM9.65521 3.76511H13.7931V5.83407H9.65521V3.76511ZM6.63334 7.21338H23.7116L28.5392 16.8686H1.80576L6.63334 7.21338Z" fill="#828282"/>
<path d="M20 22.3858C20 22.0051 19.6911 21.6962 19.3104 21.6962H11.0345C10.6538 21.6962 10.3448 22.0051 10.3448 22.3858V30.6617C10.3448 31.0424 10.6538 31.3513 11.0345 31.3513H19.3104C19.6911 31.3513 20 31.0424 20 30.6617V22.3858ZM18.6207 25.8341H15.8621V23.0755H18.6207V25.8341ZM14.4828 23.0755V25.8341H11.7242V23.0755H14.4828ZM11.7242 27.2134H14.4828V29.972H11.7242V27.2134ZM15.8621 29.972V27.2134H18.6207V29.972H15.8621Z" fill="#828282"/>
<path d="M30.2455 23.6902L36.0039 0.858312C36.0969 0.488657 35.8731 0.114273 35.5042 0.0212679C35.1361 -0.0701607 34.7594 0.152105 34.6672 0.520972L28.9103 23.3474C26.6782 23.371 24.6991 25.9436 24.0717 28.4327C24.0441 28.543 24.052 28.651 24.0764 28.7551L22.0863 33.5164C22.0091 33.7017 22.0161 33.9113 22.106 34.091C22.1958 34.2707 22.3598 34.4024 22.5545 34.4512L24.6747 34.9864C24.8299 35.025 24.9939 35.0093 25.1389 34.9407L26.1028 34.4843L26.0666 34.6262C25.9736 34.9959 26.1974 35.3702 26.5663 35.4632L30.5781 36.4753C30.6341 36.4894 30.6908 36.4965 30.7468 36.4965C30.8879 36.4965 31.0266 36.4532 31.1432 36.3712C31.308 36.2561 31.4136 36.0741 31.4333 35.8747L31.9393 30.7381C32.011 30.6561 32.0693 30.5647 32.0961 30.4575C32.7432 27.8873 32.1111 24.7235 30.2455 23.6902ZM30.1383 34.9415L27.5712 34.2944L27.7966 33.4029C27.8621 33.1436 27.7714 32.8709 27.5657 32.7015C27.3592 32.532 27.0731 32.4973 26.8327 32.6116L24.7708 33.589L23.6674 33.3107L25.2808 29.4502L30.549 30.7791L30.1383 34.9415ZM30.8934 29.4416L25.611 28.1095C26.3527 26.0705 28.0315 24.4516 29.2626 24.7629C30.5103 25.0774 31.2236 27.2465 30.8934 29.4416Z" fill="#828282"/>
<path d="M18.6207 12.5698C19.762 12.5698 20.6897 13.4975 20.6897 14.6388C20.6897 15.0195 20.9986 15.3284 21.3793 15.3284C21.76 15.3284 22.069 15.0195 22.069 14.6388C22.069 13.4975 22.9966 12.5698 24.1379 12.5698C24.5186 12.5698 24.8276 12.2608 24.8276 11.8802C24.8276 11.4995 24.5186 11.1905 24.1379 11.1905C22.9966 11.1905 22.069 10.2628 22.069 9.12154C22.069 8.74085 21.76 8.43188 21.3793 8.43188C20.9986 8.43188 20.6897 8.74085 20.6897 9.12154C20.6897 10.2628 19.762 11.1905 18.6207 11.1905C18.24 11.1905 17.931 11.4995 17.931 11.8802C17.931 12.2608 18.24 12.5698 18.6207 12.5698ZM21.3793 11.1881C21.5764 11.4498 21.8097 11.6831 22.0713 11.8802C21.8097 12.0764 21.5764 12.3097 21.3793 12.5714C21.1823 12.3097 20.949 12.0764 20.6873 11.8794C20.949 11.6831 21.183 11.4498 21.3793 11.1881Z" fill="#828282"/>
<path d="M39.3104 27.7423C38.1691 27.7423 37.2414 26.8146 37.2414 25.6733C37.2414 25.2926 36.9325 24.9836 36.5518 24.9836C36.1711 24.9836 35.8621 25.2926 35.8621 25.6733C35.8621 26.8146 34.9345 27.7423 33.7932 27.7423C33.4125 27.7423 33.1035 28.0512 33.1035 28.4319C33.1035 28.8126 33.4125 29.1216 33.7932 29.1216C34.9345 29.1216 35.8621 30.0493 35.8621 31.1905C35.8621 31.5712 36.1711 31.8802 36.5518 31.8802C36.9325 31.8802 37.2414 31.5712 37.2414 31.1905C37.2414 30.0493 38.1691 29.1216 39.3104 29.1216C39.6911 29.1216 40.0001 28.8126 40.0001 28.4319C40.0001 28.0512 39.6911 27.7423 39.3104 27.7423ZM36.5518 29.1231C36.3547 28.8615 36.1214 28.6282 35.8598 28.4311C36.1214 28.2349 36.3547 28.0016 36.5518 27.7399C36.7488 28.0016 36.9821 28.2349 37.2438 28.4319C36.9821 28.6282 36.7488 28.8615 36.5518 29.1231Z" fill="#828282"/>
</g>
<defs>
<clipPath id="clip0_29_151">
<rect width="40" height="40" fill="white"/>
</clipPath>
</defs>
</svg>
