<svg width="40" height="40" viewBox="0 0 40 40" fill="none" xmlns="http://www.w3.org/2000/svg">
<path d="M32.8777 22.1613L29.2674 19.9998C29.2592 19.9949 29.2535 19.9875 29.2452 19.9825L26.3656 18.2608C26.3623 18.2591 26.359 18.2583 26.3565 18.2567L25.9904 18.0376C25.6736 17.8499 25.2664 17.929 25.0442 18.2246C25.0409 18.2287 25.0368 18.2328 25.0335 18.2377L24.5152 16.6658C25.5659 15.4686 26.2496 13.7559 26.3286 11.8349C27.4294 10.9629 28.3032 9.39923 28.4134 8.02083C28.4957 7.00062 28.1822 6.1418 27.5092 5.53742C27.2476 5.30357 26.9473 5.16935 26.6832 5.05078C26.489 4.96515 26.2891 4.8754 26.2076 4.784C26.1138 4.67942 26.0233 4.47192 25.9361 4.27101C25.8365 4.04128 25.723 3.78026 25.556 3.54394C24.8106 2.49326 23.7204 2.01157 22.3933 2.14414C19.4108 2.45209 16.3658 2.69335 13.3438 2.86215C12.9834 2.88191 12.6938 3.16599 12.6658 3.52665C12.2331 9.23701 14.5681 11.289 15.5907 11.9082C15.6845 13.7979 16.3641 15.4818 17.4008 16.6634L16.8825 18.2353C16.8792 18.2312 16.8751 18.227 16.8718 18.2221C16.6513 17.9265 16.2432 17.8474 15.9256 18.0352L15.5595 18.2542C15.5562 18.2559 15.5529 18.2567 15.5504 18.2583L12.6708 19.9801C12.6625 19.985 12.656 19.9924 12.6486 19.9974L9.03994 22.1588C7.03571 23.3569 5.83942 25.371 5.83942 27.5481V37.4307C5.83942 37.8292 6.16194 38.1512 6.55933 38.1512H35.3559C35.7532 38.1512 36.0758 37.8292 36.0758 37.4307V27.5481C36.0758 25.371 34.8803 23.3569 32.8777 22.1613ZM16.6381 20.0624C16.6595 20.0805 16.6834 20.0962 16.7056 20.1143C16.7187 20.1266 16.727 20.1423 16.741 20.153C16.8504 20.2411 16.9656 20.3218 17.0799 20.4025C17.1038 20.419 17.1252 20.4371 17.149 20.4535C17.3251 20.5738 17.5069 20.6866 17.6937 20.7887C17.7028 20.7936 17.7118 20.7977 17.7209 20.8018C17.8945 20.8957 18.073 20.9813 18.2557 21.0596C18.3075 21.0818 18.3601 21.1007 18.4128 21.1213C18.5584 21.1798 18.7049 21.2333 18.8538 21.2819C18.9114 21.3008 18.9698 21.3173 19.029 21.3346C19.1821 21.3799 19.3376 21.4186 19.4947 21.4532C19.5466 21.4647 19.5976 21.4762 19.6494 21.4861C19.8345 21.5215 20.0213 21.5495 20.2089 21.5701C20.2327 21.5726 20.2566 21.5767 20.2813 21.5791C20.5051 21.6014 20.7305 21.6162 20.9568 21.6162C21.183 21.6162 21.4093 21.6014 21.6331 21.5791C21.6578 21.5767 21.6808 21.5726 21.7055 21.5701C21.8939 21.5495 22.0807 21.5215 22.2658 21.4861C22.3176 21.4762 22.3686 21.4647 22.4205 21.4532C22.5776 21.4194 22.7323 21.3799 22.8861 21.3346C22.9446 21.3173 23.003 21.3008 23.0614 21.2819C23.2111 21.2333 23.3576 21.1798 23.5024 21.1213C23.555 21.1007 23.6077 21.0818 23.6595 21.0596C23.8422 20.9813 24.0207 20.8957 24.1951 20.801C24.2034 20.7969 24.2124 20.7928 24.2206 20.7887C24.4082 20.6857 24.5892 20.5738 24.7661 20.4527C24.79 20.4363 24.8114 20.4181 24.8352 20.4017C24.9504 20.321 25.0648 20.2403 25.1742 20.1522C25.1882 20.1406 25.1964 20.1258 25.2096 20.1135C25.231 20.0954 25.2549 20.0797 25.2762 20.0616V25.1824H16.6373L16.6381 20.0624ZM18.7485 17.7914C18.8291 17.8384 18.9114 17.8828 18.9945 17.9248C19.0776 17.966 19.1599 18.0072 19.2446 18.0426C19.3795 18.1011 19.5161 18.1505 19.656 18.1957C19.6914 18.2064 19.7259 18.2204 19.7613 18.2312C20.1472 18.3448 20.547 18.4098 20.9584 18.4098C21.3698 18.4098 21.7705 18.344 22.1555 18.2303C22.1909 18.2204 22.2255 18.2064 22.2608 18.1949C22.3999 18.1505 22.5373 18.1011 22.6714 18.0426C22.7561 18.0064 22.8384 17.966 22.9215 17.9248C23.0046 17.8828 23.0861 17.8384 23.1675 17.7914C23.2243 17.7585 23.2843 17.7338 23.3403 17.6976L23.8734 19.3131C23.8595 19.3222 23.8471 19.3329 23.8331 19.3419C22.1547 20.4157 19.7621 20.4157 18.0837 19.3419C18.0697 19.3329 18.0574 19.3222 18.0434 19.3131L18.5765 17.6976C18.6317 17.7338 18.6917 17.7585 18.7485 17.7914ZM14.0645 4.26442C16.8981 4.09645 19.7457 3.86589 22.5398 3.57852C23.3378 3.49618 23.9417 3.75802 24.3811 4.37805C24.4617 4.49168 24.5366 4.66296 24.6147 4.84411C24.7415 5.13642 24.8854 5.46661 25.1356 5.74492C25.4219 6.06523 25.7962 6.23156 26.0965 6.36577C26.2808 6.44811 26.4553 6.52552 26.5482 6.6095C26.879 6.90593 27.0238 7.34152 26.9785 7.90308C26.9275 8.54205 26.6231 9.27077 26.2018 9.87516C26.1039 9.32924 25.9567 8.79896 25.7567 8.29009C25.6761 8.08341 25.5042 7.92532 25.2919 7.86191C25.0788 7.79933 24.8492 7.83721 24.6691 7.96649C23.7031 8.65486 22.2831 8.48688 21.4981 7.59513C21.225 7.28388 20.6902 7.28388 20.417 7.59513C19.6329 8.48688 18.212 8.65486 17.2461 7.96649C17.0651 7.83804 16.8348 7.80016 16.6233 7.86191C16.4102 7.92532 16.2391 8.08259 16.1584 8.29009C15.9256 8.88377 15.7701 9.50792 15.6755 10.1502C14.9062 9.35805 13.9279 7.67253 14.0645 4.26442ZM17.247 9.59355C18.4605 10.0637 19.9201 9.8521 20.9576 9.05422C21.9943 9.8521 23.4538 10.0637 24.6682 9.59355C24.8237 10.1905 24.9027 10.8171 24.9027 11.4643C24.9027 13.3137 24.2437 14.949 23.2383 15.9478C23.2251 15.9585 23.2103 15.9659 23.1988 15.9775C21.8659 17.2752 20.0501 17.2752 18.7172 15.9775C18.7049 15.9659 18.6901 15.9585 18.6777 15.9478C17.6723 14.949 17.0133 13.3146 17.0133 11.4652C17.0125 10.8171 17.0915 10.1913 17.247 9.59355ZM7.27924 27.5481C7.27924 25.8831 8.21225 24.3318 9.77631 23.3972L12.3186 21.8756V25.3059C11.4802 25.6032 10.8788 26.4052 10.8788 27.3439V36.7102H7.27924V27.5481ZM12.3186 36.7102V27.3439C12.3186 26.9462 12.642 26.6234 13.0385 26.6234C13.4359 26.6234 13.7585 26.3014 13.7585 25.9029V21.0126L15.1983 20.1505V25.9029C15.1983 26.3014 15.5208 26.6234 15.9182 26.6234H25.997C26.3944 26.6234 26.7169 26.3014 26.7169 25.9029V20.1505L28.1567 21.0126V25.9029C28.1567 26.3014 28.4792 26.6234 28.8766 26.6234C29.0692 26.6234 29.2461 26.6975 29.3892 26.844C29.5225 26.9733 29.5965 27.1512 29.5965 27.3439V36.7102H12.3186ZM34.6359 36.7102H31.0364V27.3439C31.0364 26.7592 30.8085 26.215 30.4078 25.8255C30.1774 25.5883 29.901 25.4121 29.5965 25.3051V21.8748L32.1389 23.3972C33.7021 24.3318 34.6359 25.8831 34.6359 27.5481V36.7102Z" fill="#828282"/>
<path d="M6.5594 20.1398C6.9568 20.1398 7.27932 19.8178 7.27932 19.4193C7.27932 18.227 8.2477 17.2579 9.43906 17.2579C9.83645 17.2579 10.159 16.9359 10.159 16.5374C10.159 16.1388 9.83645 15.8169 9.43906 15.8169C8.2477 15.8169 7.27932 14.8477 7.27932 13.6554C7.27932 13.2569 6.9568 12.9349 6.5594 12.9349C6.16201 12.9349 5.83949 13.2569 5.83949 13.6554C5.83949 14.8477 4.87111 15.8169 3.67975 15.8169C3.28236 15.8169 2.95984 16.1388 2.95984 16.5374C2.95984 16.9359 3.28236 17.2579 3.67975 17.2579C4.87111 17.2579 5.83949 18.227 5.83949 19.4193C5.83949 19.817 6.16201 20.1398 6.5594 20.1398ZM6.5594 15.8144C6.76509 16.0878 7.00863 16.3315 7.28179 16.5374C7.00863 16.7432 6.76509 16.9861 6.5594 17.2603C6.35371 16.987 6.11018 16.7432 5.83702 16.5374C6.11018 16.3315 6.35371 16.0878 6.5594 15.8144Z" fill="#828282"/>
<path d="M37.5157 6.45055C36.3243 6.45055 35.3559 5.48139 35.3559 4.28909C35.3559 3.89056 35.0334 3.5686 34.636 3.5686C34.2386 3.5686 33.9161 3.89056 33.9161 4.28909C33.9161 5.48139 32.9477 6.45055 31.7564 6.45055C31.359 6.45055 31.0364 6.7725 31.0364 7.17103C31.0364 7.56957 31.359 7.89152 31.7564 7.89152C32.9477 7.89152 33.9161 8.86068 33.9161 10.053C33.9161 10.4515 34.2386 10.7735 34.636 10.7735C35.0334 10.7735 35.3559 10.4515 35.3559 10.053C35.3559 8.86068 36.3243 7.89152 37.5157 7.89152C37.913 7.89152 38.2356 7.56957 38.2356 7.17103C38.2356 6.7725 37.913 6.45055 37.5157 6.45055ZM34.636 7.89317C34.4303 7.61979 34.1868 7.37606 33.9136 7.17021C34.1868 6.96436 34.4303 6.72145 34.636 6.44725C34.8417 6.72063 35.0852 6.96436 35.3584 7.17021C35.0852 7.37606 34.8417 7.61979 34.636 7.89317Z" fill="#828282"/>
<path d="M23.9319 32.365C23.8982 32.6713 23.639 32.9093 23.3247 32.9093C23.2868 32.9093 23.2498 32.906 23.2144 32.8994C23.161 33.1012 23.0812 33.2922 22.9783 33.4684C23.0079 33.489 23.0367 33.5129 23.0639 33.5392C23.6324 34.1082 22.7677 34.9728 22.2 34.4038C22.1737 34.3775 22.1498 34.3486 22.1292 34.3182C21.9532 34.4203 21.7623 34.5001 21.5607 34.5545C21.5673 34.5907 21.5706 34.627 21.5706 34.6648C21.5706 35.4693 20.3488 35.4693 20.3488 34.6648C20.3488 34.627 20.3521 34.5899 20.3587 34.5545C20.1571 34.501 19.9662 34.4211 19.7901 34.3182C19.7696 34.3486 19.7457 34.3766 19.7185 34.4038C19.15 34.9728 18.2861 34.1074 18.8547 33.5392C18.8818 33.5121 18.9098 33.489 18.9402 33.4676C18.8382 33.2914 18.7584 33.1003 18.7041 32.8986C18.6687 32.9052 18.6317 32.9085 18.5938 32.9085C18.2787 32.9085 18.0196 32.6705 17.9866 32.3642H19.4939C19.5293 33.1481 20.176 33.7657 20.9601 33.7657C21.7442 33.7657 22.3909 33.1481 22.4262 32.3642L23.9319 32.365ZM17.4239 31.5136H18.0558C17.9463 30.2316 18.6012 29.2056 19.7235 28.6111V29.7351C19.7235 31.3539 22.1934 31.3662 22.1934 29.7351V28.6111C23.3165 29.2056 23.9706 30.2316 23.8611 31.5136H24.493C24.5687 31.5136 24.6386 31.5449 24.6888 31.5951C24.7966 31.7038 24.7974 31.8792 24.6888 31.9871C24.6378 32.0381 24.5687 32.0694 24.493 32.0694H17.4255C17.3498 32.0694 17.2799 32.0381 17.2297 31.9879C17.1219 31.8792 17.1211 31.7038 17.2297 31.596C17.2782 31.5441 17.3482 31.5128 17.4239 31.5136ZM21.4982 28.3896C21.5048 28.8375 21.4998 29.2863 21.4998 29.7351C21.4998 30.4399 20.4162 30.4448 20.4162 29.7351C20.4162 29.2871 20.4121 28.8375 20.4179 28.3896C20.8128 28.3254 21.1032 28.3254 21.4982 28.3896Z" fill="#828282"/>
</svg>
