<svg width="40" height="40" viewBox="0 0 40 40" fill="none" xmlns="http://www.w3.org/2000/svg">
<g clip-path="url(#clip0_75_100)">
<path fill-rule="evenodd" clip-rule="evenodd" d="M19.5023 10.1122C24.6867 10.1122 28.8901 14.3149 28.8901 19.5C28.8901 24.6844 24.6874 28.8878 19.5023 28.8878C14.3172 28.8878 10.1145 24.6844 10.1145 19.5C10.1145 14.3157 14.318 10.113 19.5023 10.1122ZM28.3628 31.9095L29.0376 29.5445C29.1301 29.2211 28.942 28.8841 28.6186 28.7923C28.5554 28.7742 28.4922 28.7675 28.4305 28.7697L26.0159 28.6825C25.6804 28.6704 25.399 28.933 25.3877 29.2684C25.3757 29.6039 25.6382 29.8853 25.9737 29.8966L26.7944 29.9259C26.0715 30.4329 25.2922 30.8677 24.4678 31.2167C20.168 33.0371 15.1702 32.3601 11.4994 29.3881C7.75402 26.3558 6.06452 21.4919 7.06047 16.8349C7.34406 15.5094 7.83602 14.2532 8.504 13.1061C8.67174 12.8157 8.5732 12.4434 8.28209 12.2756C7.99173 12.1079 7.61938 12.2064 7.45163 12.4975C6.72046 13.7545 6.18036 15.1303 5.87045 16.5829C4.77972 21.6822 6.63396 27.0118 10.7336 30.3313C14.7603 33.5907 20.226 34.3317 24.9402 32.336C25.7947 31.9742 26.6018 31.5319 27.3526 31.0196L27.1938 31.5755C27.1013 31.899 27.2894 32.236 27.6128 32.3278C27.9348 32.4203 28.2718 32.233 28.3628 31.9095ZM31.5538 26.5018C32.2849 25.2448 32.825 23.8682 33.1349 22.4156C34.2257 17.3163 32.3714 11.9868 28.2725 8.66794C24.2346 5.39951 18.7441 4.66308 14.0223 6.6813C13.1851 7.03936 12.393 7.47566 11.6536 7.97965L11.8123 7.423C11.9048 7.09954 11.7168 6.76254 11.3933 6.67077C11.0698 6.57825 10.7328 6.7663 10.6411 7.08976L9.96633 9.45477C9.8738 9.77822 10.0619 10.1152 10.3853 10.207C10.4485 10.225 10.5117 10.2318 10.5734 10.2296L12.988 10.3168C13.3235 10.3289 13.6049 10.0663 13.6161 9.73083C13.6282 9.39534 13.3656 9.11401 13.0301 9.10272L12.2095 9.07339C12.9203 8.57541 13.6861 8.14739 14.497 7.79987C18.805 5.95841 23.8201 6.62789 27.5045 9.61048C31.2499 12.6427 32.9401 17.5059 31.9434 22.1637C31.6598 23.4891 31.1679 24.7453 30.4999 25.8924C30.3321 26.1828 30.4307 26.5552 30.7218 26.7229C31.0137 26.8914 31.3853 26.7921 31.5538 26.5018ZM3.695 28.6855C2.73516 27.0373 2.02807 25.2312 1.62111 23.3266C0.189622 16.6355 2.61857 9.64508 8 5.28818C13.2949 1.00198 20.502 0.0391317 26.6929 2.68547C28.089 3.28199 29.3904 4.04625 30.5759 4.95043L28.6818 5.01813C28.3463 5.03016 28.0837 5.3115 28.0958 5.64624C28.1078 5.98173 28.3891 6.24351 28.7239 6.23222L32.1638 6.10886C32.2255 6.11111 32.2894 6.10359 32.3519 6.08629C32.6753 5.99377 32.8626 5.65752 32.7709 5.33406L31.814 1.98289C31.7215 1.65943 31.3853 1.47137 31.0618 1.5639C30.7383 1.65642 30.5503 1.99267 30.6428 2.31612L31.0671 3.79877C29.8703 2.9149 28.5644 2.16342 27.169 1.56691C20.5645 -1.25545 12.882 -0.227157 7.23348 4.34564C1.49775 8.98914 -1.09518 16.4452 0.430335 23.5793C0.86437 25.6111 1.61885 27.5368 2.64264 29.2948C2.81038 29.5851 3.18274 29.6844 3.4731 29.5167C3.76421 29.3482 3.86275 28.9758 3.695 28.6855ZM35.3096 10.3146C36.2695 11.9627 36.9766 13.768 37.3835 15.6727C38.815 22.3637 36.3861 29.3542 31.0046 33.7111C25.7285 37.9823 18.547 38.9549 12.3682 36.3394C10.9525 35.7399 9.63159 34.9666 8.42877 34.0496L10.3229 33.9819C10.6584 33.9699 10.9202 33.6885 10.9089 33.3538C10.8968 33.0183 10.6155 32.7565 10.2808 32.7678L6.84082 32.8912C6.77914 32.8889 6.7152 32.8964 6.65276 32.9137C6.32931 33.0063 6.14125 33.3425 6.23377 33.666L7.18985 37.0171C7.28238 37.3406 7.61862 37.5287 7.94208 37.4361C8.26554 37.3436 8.45284 37.0074 8.36107 36.6839L7.93832 35.2013C9.15166 36.0964 10.4778 36.8569 11.8973 37.4579C18.4906 40.2487 26.1407 39.2121 31.7719 34.6544C37.5076 30.0101 40.1006 22.5541 38.5751 15.4199C38.1403 13.3882 37.3865 11.4625 36.3628 9.70451C36.195 9.41415 35.8227 9.31485 35.5323 9.4826C35.2404 9.65185 35.1411 10.0242 35.3096 10.3146ZM25.4412 18.9938H24.7972C24.5174 18.9938 24.291 19.2209 24.291 19.5C24.291 19.7798 24.5182 20.0063 24.7972 20.0063H25.4412C25.721 20.0063 25.9474 19.7791 25.9474 19.5C25.9482 19.2209 25.7217 18.9938 25.4412 18.9938ZM18.9088 16.1932V19.5008C18.9088 19.7355 19.045 19.9386 19.2428 20.0348L21.4137 21.2881C21.6966 21.452 22.0591 21.355 22.2231 21.0729C22.3871 20.7901 22.2908 20.4275 22.0072 20.2635L20.0958 19.16V16.194C20.0958 15.866 19.8295 15.6005 19.5023 15.6005C19.1743 15.599 18.9088 15.8645 18.9088 16.1932ZM23.3439 14.9423L22.8888 15.3974C22.691 15.5952 22.691 15.9157 22.8888 16.1135C23.0867 16.3113 23.4071 16.3113 23.605 16.1135L24.0601 15.6584C24.2579 15.4606 24.2579 15.1401 24.0601 14.9423C23.8622 14.7444 23.5418 14.7444 23.3439 14.9423ZM18.9953 13.5612V14.2051C18.9953 14.4849 19.2225 14.7113 19.5016 14.7113C19.7814 14.7113 20.0078 14.4842 20.0078 14.2051V13.5612C20.0078 13.2813 19.7806 13.0549 19.5016 13.0549C19.2225 13.0542 18.9953 13.2813 18.9953 13.5612ZM14.9446 15.6584L15.3997 16.1135C15.5975 16.3113 15.918 16.3113 16.1158 16.1135C16.3136 15.9157 16.3136 15.5952 16.1158 15.3974L15.6607 14.9423C15.4629 14.7444 15.1424 14.7444 14.9446 14.9423C14.7467 15.1401 14.7467 15.4613 14.9446 15.6584ZM13.5627 20.007H14.2066C14.4865 20.007 14.7129 19.7798 14.7129 19.5008C14.7129 19.2209 14.4857 18.9945 14.2066 18.9945H13.5627C13.2829 18.9945 13.0565 19.2217 13.0565 19.5008C13.0565 19.7798 13.2829 20.007 13.5627 20.007ZM15.6607 24.0585L16.1158 23.6034C16.3136 23.4056 16.3136 23.0851 16.1158 22.8873C15.918 22.6895 15.5975 22.6895 15.3997 22.8873L14.9446 23.3424C14.7467 23.5402 14.7467 23.8607 14.9446 24.0585C15.1417 24.2556 15.4629 24.2556 15.6607 24.0585ZM20.0086 25.4396V24.7957C20.0086 24.5159 19.7814 24.2894 19.5023 24.2894C19.2225 24.2894 18.9961 24.5166 18.9961 24.7957V25.4396C18.9961 25.7194 19.2232 25.9459 19.5023 25.9459C19.7814 25.9459 20.0086 25.7194 20.0086 25.4396ZM24.0601 23.3416L23.605 22.8865C23.4071 22.6887 23.0867 22.6887 22.8888 22.8865C22.691 23.0844 22.691 23.4048 22.8888 23.6027L23.3439 24.0578C23.5418 24.2556 23.8622 24.2556 24.0601 24.0578C24.2579 23.8607 24.2579 23.5395 24.0601 23.3416ZM19.5023 11.7558C15.2252 11.7558 11.7581 15.2228 11.7581 19.5C11.7581 23.7772 15.2252 27.2442 19.5023 27.2442C23.7795 27.2442 27.2465 23.7772 27.2465 19.5C27.2465 15.2228 23.7787 11.7558 19.5023 11.7558Z" fill="#828282"/>
</g>
<defs>
<clipPath id="clip0_75_100">
<rect width="40" height="40" fill="white"/>
</clipPath>
</defs>
</svg>
