<svg width="80" height="80" viewBox="0 0 80 80" fill="none" xmlns="http://www.w3.org/2000/svg">
<path d="M59.1414 49.9454L70.2728 5.76859C70.4526 5.05335 70.0199 4.32896 69.3052 4.14901C68.5921 3.96906 67.8667 4.40217 67.6869 5.11588L56.557 49.2821C52.2416 49.3278 48.4153 54.3055 47.2023 59.1215C47.1505 59.3289 47.1658 59.5394 47.213 59.7437L43.3639 68.9579C43.2145 69.3163 43.2282 69.7219 43.402 70.0696C43.5757 70.4173 43.8926 70.672 44.269 70.7666L48.3696 71.8021C48.6682 71.8753 48.9867 71.8463 49.2671 71.7136L51.1292 70.8291L51.0606 71.1036C50.8808 71.8188 51.3136 72.5432 52.0282 72.7232L59.7844 74.6813C59.8911 74.7088 60.0008 74.7225 60.1105 74.7225C60.3833 74.7225 60.6515 74.6386 60.877 74.48C61.1955 74.2574 61.3997 73.9051 61.4378 73.5192L62.4161 63.5807C62.5547 63.4221 62.669 63.2452 62.7208 63.0378C63.9703 58.0677 62.7498 51.9463 59.1414 49.9454ZM58.9341 71.7151L53.9711 70.4631L54.4069 68.7383C54.5334 68.2366 54.3581 67.7089 53.9604 67.381C53.5627 67.0531 53.0111 66.986 52.5433 67.2072L48.5585 69.0982L46.4221 68.5599L49.5429 61.0888L53.0614 61.9763L59.7265 63.66L58.9341 71.7151ZM60.3955 61.0751L50.1829 58.4978C51.6183 54.5541 54.8503 51.4156 57.2442 52.0225C59.6534 52.6295 61.0324 56.8263 60.3955 61.0751Z" fill="#828282"/>
<path d="M42 21.757C39.7935 21.757 38 19.962 38 17.7538C38 17.0172 37.4042 16.4194 36.6667 16.4194C35.9291 16.4194 35.3333 17.0172 35.3333 17.7538C35.3333 19.962 33.5398 21.757 31.3333 21.757C30.5958 21.757 30 22.3548 30 23.0913C30 23.8279 30.5958 24.4257 31.3333 24.4257C33.5398 24.4257 35.3333 26.2207 35.3333 28.4289C35.3333 29.1655 35.9291 29.7633 36.6667 29.7633C37.4042 29.7633 38 29.1655 38 28.4289C38 26.2207 39.7935 24.4257 42 24.4257C42.7375 24.4257 43.3333 23.8279 43.3333 23.0913C43.3333 22.3548 42.7375 21.757 42 21.757ZM36.6667 24.4303C36.2857 23.924 35.8362 23.4726 35.3288 23.0913C35.8347 22.7101 36.2857 22.2587 36.6667 21.7524C37.0476 22.2587 37.4971 22.7101 38.0046 23.0913C37.4971 23.4726 37.0476 23.924 36.6667 24.4303Z" fill="#828282"/>
<path d="M76.6666 57.7856C74.4601 57.7856 72.6666 55.9906 72.6666 53.7824C72.6666 53.0458 72.0708 52.448 71.3333 52.448C70.5958 52.448 70 53.0458 70 53.7824C70 55.9906 68.2064 57.7856 66 57.7856C65.2624 57.7856 64.6666 58.3834 64.6666 59.12C64.6666 59.8566 65.2624 60.4544 66 60.4544C68.2064 60.4544 70 62.2493 70 64.4576C70 65.1941 70.5958 65.7919 71.3333 65.7919C72.0708 65.7919 72.6666 65.1941 72.6666 64.4576C72.6666 62.2493 74.4601 60.4544 76.6666 60.4544C77.4041 60.4544 78 59.8566 78 59.12C78 58.3834 77.4041 57.7856 76.6666 57.7856ZM71.3333 60.4589C70.9523 59.9526 70.5028 59.5012 69.9954 59.12C70.5013 58.7387 70.9523 58.2873 71.3333 57.781C71.7142 58.2873 72.1638 58.7387 72.6712 59.12C72.1638 59.5012 71.7142 59.9526 71.3333 60.4589Z" fill="#828282"/>
<path d="M38 44.4417H12.6667V36.4353C12.6667 34.9636 13.8629 33.7665 15.3333 33.7665C16.8038 33.7665 18 34.9636 18 36.4353C18 37.1719 18.5958 37.7697 19.3333 37.7697C20.0709 37.7697 20.6667 37.1719 20.6667 36.4353C20.6667 33.492 18.2743 31.0977 15.3333 31.0977C12.3924 31.0977 10 33.492 10 36.4353V44.4417H3.33333C2.59581 44.4417 2 45.0395 2 45.7761V67.1264C2 67.863 2.59581 68.4608 3.33333 68.4608H4.66667V71.1296H3.33333C2.59581 71.1296 2 71.7274 2 72.464C2 73.2005 2.59581 73.7984 3.33333 73.7984H38C38.7375 73.7984 39.3333 73.2005 39.3333 72.464C39.3333 71.7274 38.7375 71.1296 38 71.1296H36.6667V68.4608H38C38.7375 68.4608 39.3333 67.863 39.3333 67.1264V45.7761C39.3333 45.0395 38.7375 44.4417 38 44.4417ZM4.66667 65.792V47.1105H19.3333V65.792H4.66667ZM34 71.1296H7.33333V68.4608H34V71.1296ZM36.6667 65.792H22V47.1105H36.6667V65.792Z" fill="#828282"/>
<path d="M16.6667 52.448C15.9292 52.448 15.3334 53.0458 15.3334 53.7824V59.12C15.3334 59.8566 15.9292 60.4544 16.6667 60.4544C17.4042 60.4544 18 59.8566 18 59.12V53.7824C18 53.0458 17.4042 52.448 16.6667 52.448Z" fill="#828282"/>
<path d="M24.6666 60.4544C25.4041 60.4544 25.9999 59.8566 25.9999 59.12V53.7824C25.9999 53.0458 25.4041 52.448 24.6666 52.448C23.9291 52.448 23.3333 53.0458 23.3333 53.7824V59.12C23.3333 59.8566 23.9291 60.4544 24.6666 60.4544Z" fill="#828282"/>
<path d="M3.33333 25.7601H27.3333C28.0709 25.7601 28.6667 25.1623 28.6667 24.4257C28.6667 23.6891 28.0709 23.0913 27.3333 23.0913H20.6667V19.0881C20.6667 18.3515 20.0709 17.7537 19.3333 17.7537H11.3333C10.5958 17.7537 10 18.3515 10 19.0881V23.0913H3.33333C2.59581 23.0913 2 23.6891 2 24.4257C2 25.1623 2.59581 25.7601 3.33333 25.7601ZM12.6667 20.4225H18V23.0913H12.6667V20.4225Z" fill="#828282"/>
<path d="M46 25.7601H47.3334V31.2868C45.04 31.8831 43.3334 33.9556 43.3334 36.4353C43.3334 39.3785 45.7258 41.7728 48.6667 41.7728C51.6077 41.7728 54 39.3785 54 36.4353C54 33.9556 52.2934 31.8846 50 31.2868V25.7601H56.6667C57.4042 25.7601 58 25.1623 58 24.4257C58 23.6891 57.4042 23.0913 56.6667 23.0913H46C45.2625 23.0913 44.6667 23.6891 44.6667 24.4257C44.6667 25.1623 45.2625 25.7601 46 25.7601ZM51.3334 36.4353C51.3334 37.9069 50.1372 39.104 48.6667 39.104C47.1962 39.104 46 37.9069 46 36.4353C46 34.9636 47.1962 33.7665 48.6667 33.7665C50.1372 33.7665 51.3334 34.9636 51.3334 36.4353Z" fill="#828282"/>
</svg>
