<svg width="40" height="40" viewBox="0 0 40 40" fill="none" xmlns="http://www.w3.org/2000/svg">
<path d="M2.75868 9.89672C2.75868 10.2782 3.06765 10.5864 3.44834 10.5864C3.82904 10.5864 4.13801 10.2782 4.13801 9.89672C4.13801 8.75541 5.06572 7.82771 6.20702 7.82771C6.58772 7.82771 6.89669 7.51953 6.89669 7.13804C6.89669 6.75656 6.58772 6.44837 6.20702 6.44837C5.06572 6.44837 4.13801 5.52067 4.13801 4.37937C4.13801 3.99788 3.82904 3.6897 3.44834 3.6897C3.06765 3.6897 2.75868 3.99788 2.75868 4.37937C2.75868 5.52067 1.83097 6.44837 0.689669 6.44837C0.308972 6.44837 0 6.75656 0 7.13804C0 7.51953 0.308972 7.82771 0.689669 7.82771C1.83097 7.82771 2.75868 8.75541 2.75868 9.89672ZM3.44834 6.44601C3.64539 6.70769 3.8787 6.94099 4.14038 7.13804C3.8787 7.33509 3.64539 7.56761 3.44834 7.83007C3.2513 7.56839 3.01799 7.33509 2.75631 7.13804C3.01799 6.94099 3.2513 6.70848 3.44834 6.44601Z" fill="#828282"/>
<path d="M39.3104 28.5178C38.169 28.5178 37.2413 27.5901 37.2413 26.4488C37.2413 26.0673 36.9324 25.7591 36.5517 25.7591C36.171 25.7591 35.862 26.0673 35.862 26.4488C35.862 27.5901 34.9343 28.5178 33.793 28.5178C33.4123 28.5178 33.1033 28.826 33.1033 29.2074C33.1033 29.5889 33.4123 29.8971 33.793 29.8971C34.9343 29.8971 35.862 30.8248 35.862 31.9661C35.862 32.3476 36.171 32.6558 36.5517 32.6558C36.9324 32.6558 37.2413 32.3476 37.2413 31.9661C37.2413 30.8248 38.169 29.8971 39.3104 29.8971C39.691 29.8971 40 29.5889 40 29.2074C40 28.826 39.691 28.5178 39.3104 28.5178ZM36.5517 29.8995C36.3546 29.6378 36.1213 29.4045 35.8596 29.2074C36.1213 29.0104 36.3546 28.7779 36.5517 28.5154C36.7487 28.7771 36.982 29.0104 37.2437 29.2074C36.982 29.4045 36.7487 29.637 36.5517 29.8995Z" fill="#828282"/>
<path d="M33.4486 33.3454H31.3795V13.345C31.3795 12.9635 31.0706 12.6554 30.6899 12.6554H29.3105V9.20702C29.3105 8.82553 29.0016 8.51735 28.6209 8.51735H27.2415V7.13801H28.6209C29.0016 7.13801 29.3105 6.82983 29.3105 6.44834V3.68967C29.3105 3.30818 29.0016 3 28.6209 3H16.2068C15.8261 3 15.5172 3.30818 15.5172 3.68967V6.44834C15.5172 6.82983 15.8261 7.13801 16.2068 7.13801H17.5862V8.51735H16.2068C15.8261 8.51735 15.5172 8.82553 15.5172 9.20702V12.6554H4.48246C4.10177 12.6554 3.79279 12.9635 3.79279 13.345V33.3454H1.72379C1.34309 33.3454 1.03412 33.6536 1.03412 34.0351V36.7938C1.03412 37.1753 1.34309 37.4834 1.72379 37.4834H33.4486C33.8293 37.4834 34.1382 37.1753 34.1382 36.7938V34.0351C34.1382 33.6536 33.8293 33.3454 33.4486 33.3454ZM16.8965 4.37934H27.9312V5.75868H16.8965V4.37934ZM18.9655 7.13801H25.8622V8.51735H18.9655V7.13801ZM16.8965 9.89669H27.9312V12.6554H25.8622V11.276C25.8622 10.8945 25.5532 10.5864 25.1725 10.5864C24.7918 10.5864 24.4829 10.8945 24.4829 11.276V12.6554H23.1035V11.276C23.1035 10.8945 22.7945 10.5864 22.4139 10.5864C22.0332 10.5864 21.7242 10.8945 21.7242 11.276V12.6554H20.3448V11.276C20.3448 10.8945 20.0359 10.5864 19.6552 10.5864C19.2745 10.5864 18.9655 10.8945 18.9655 11.276V12.6554H16.8965V9.89669ZM5.17213 14.0347H30.0002V33.3454H22.4139V28.5177C22.4139 28.1363 22.1049 27.8281 21.7242 27.8281H13.4482C13.0675 27.8281 12.7585 28.1363 12.7585 28.5177V33.3454H5.17213V14.0347ZM14.1378 33.3454V29.2074H16.8965V33.3454H14.1378ZM18.2758 29.2074H21.0345V33.3454H18.2758V29.2074ZM32.7589 36.1041H2.41346V34.7248H32.7589V36.1041Z" fill="#828282"/>
<path d="M8.62045 14.7244C8.23976 14.7244 7.93079 15.0325 7.93079 15.414V17.3845C7.93079 17.766 8.23976 18.0742 8.62045 18.0742C9.00115 18.0742 9.31012 17.766 9.31012 17.3845V15.414C9.31012 15.0325 9.00115 14.7244 8.62045 14.7244Z" fill="#828282"/>
<path d="M8.62045 18.6653C8.23976 18.6653 7.93079 18.9735 7.93079 19.355V21.3247C7.93079 21.7062 8.23976 22.0144 8.62045 22.0144C9.00115 22.0144 9.31012 21.7062 9.31012 21.3247V19.355C9.31012 18.9735 9.00115 18.6653 8.62045 18.6653Z" fill="#828282"/>
<path d="M8.62045 22.6063C8.23976 22.6063 7.93079 22.9145 7.93079 23.296V25.2665C7.93079 25.648 8.23976 25.9561 8.62045 25.9561C9.00115 25.9561 9.31012 25.648 9.31012 25.2665V23.296C9.31012 22.9145 9.00115 22.6063 8.62045 22.6063Z" fill="#828282"/>
<path d="M8.62045 26.548C8.23976 26.548 7.93079 26.8562 7.93079 27.2377V29.2074C7.93079 29.5889 8.23976 29.8971 8.62045 29.8971C9.00115 29.8971 9.31012 29.5889 9.31012 29.2074V27.2377C9.31012 26.8562 9.00115 26.548 8.62045 26.548Z" fill="#828282"/>
<path d="M11.3791 14.7244C10.9984 14.7244 10.6895 15.0325 10.6895 15.414V17.3845C10.6895 17.766 10.9984 18.0742 11.3791 18.0742C11.7598 18.0742 12.0688 17.766 12.0688 17.3845V15.414C12.0688 15.0325 11.7598 14.7244 11.3791 14.7244Z" fill="#828282"/>
<path d="M11.3791 18.6653C10.9984 18.6653 10.6895 18.9735 10.6895 19.355V21.3247C10.6895 21.7062 10.9984 22.0144 11.3791 22.0144C11.7598 22.0144 12.0688 21.7062 12.0688 21.3247V19.355C12.0688 18.9735 11.7598 18.6653 11.3791 18.6653Z" fill="#828282"/>
<path d="M11.3791 22.6063C10.9984 22.6063 10.6895 22.9145 10.6895 23.296V25.2665C10.6895 25.648 10.9984 25.9561 11.3791 25.9561C11.7598 25.9561 12.0688 25.648 12.0688 25.2665V23.296C12.0688 22.9145 11.7598 22.6063 11.3791 22.6063Z" fill="#828282"/>
<path d="M14.8275 18.0742C15.2082 18.0742 15.5172 17.766 15.5172 17.3845V15.414C15.5172 15.0325 15.2082 14.7244 14.8275 14.7244C14.4468 14.7244 14.1378 15.0325 14.1378 15.414V17.3845C14.1378 17.766 14.4468 18.0742 14.8275 18.0742Z" fill="#828282"/>
<path d="M14.8275 22.0152C15.2082 22.0152 15.5172 21.707 15.5172 21.3255V19.3558C15.5172 18.9743 15.2082 18.6661 14.8275 18.6661C14.4468 18.6661 14.1378 18.9743 14.1378 19.3558V21.3255C14.1378 21.707 14.4468 22.0152 14.8275 22.0152Z" fill="#828282"/>
<path d="M14.8275 25.9561C15.2082 25.9561 15.5172 25.648 15.5172 25.2665V23.296C15.5172 22.9145 15.2082 22.6063 14.8275 22.6063C14.4468 22.6063 14.1378 22.9145 14.1378 23.296V25.2665C14.1378 25.648 14.4468 25.9561 14.8275 25.9561Z" fill="#828282"/>
<path d="M17.5862 18.0742C17.9669 18.0742 18.2758 17.766 18.2758 17.3845V15.414C18.2758 15.0325 17.9669 14.7244 17.5862 14.7244C17.2055 14.7244 16.8965 15.0325 16.8965 15.414V17.3845C16.8965 17.766 17.2055 18.0742 17.5862 18.0742Z" fill="#828282"/>
<path d="M17.5862 22.0152C17.9669 22.0152 18.2758 21.707 18.2758 21.3255V19.3558C18.2758 18.9743 17.9669 18.6661 17.5862 18.6661C17.2055 18.6661 16.8965 18.9743 16.8965 19.3558V21.3255C16.8965 21.707 17.2055 22.0152 17.5862 22.0152Z" fill="#828282"/>
<path d="M17.5862 25.9561C17.9669 25.9561 18.2758 25.648 18.2758 25.2665V23.296C18.2758 22.9145 17.9669 22.6063 17.5862 22.6063C17.2055 22.6063 16.8965 22.9145 16.8965 23.296V25.2665C16.8965 25.648 17.2055 25.9561 17.5862 25.9561Z" fill="#828282"/>
<path d="M20.3448 18.0742C20.7255 18.0742 21.0345 17.766 21.0345 17.3845V15.414C21.0345 15.0325 20.7255 14.7244 20.3448 14.7244C19.9641 14.7244 19.6552 15.0325 19.6552 15.414V17.3845C19.6552 17.766 19.9641 18.0742 20.3448 18.0742Z" fill="#828282"/>
<path d="M20.3448 22.0152C20.7255 22.0152 21.0345 21.707 21.0345 21.3255V19.3558C21.0345 18.9743 20.7255 18.6661 20.3448 18.6661C19.9641 18.6661 19.6552 18.9743 19.6552 19.3558V21.3255C19.6552 21.707 19.9641 22.0152 20.3448 22.0152Z" fill="#828282"/>
<path d="M20.3448 25.9561C20.7255 25.9561 21.0345 25.648 21.0345 25.2665V23.296C21.0345 22.9145 20.7255 22.6063 20.3448 22.6063C19.9641 22.6063 19.6552 22.9145 19.6552 23.296V25.2665C19.6552 25.648 19.9641 25.9561 20.3448 25.9561Z" fill="#828282"/>
<path d="M23.7932 18.0742C24.1739 18.0742 24.4829 17.766 24.4829 17.3845V15.414C24.4829 15.0325 24.1739 14.7244 23.7932 14.7244C23.4125 14.7244 23.1035 15.0325 23.1035 15.414V17.3845C23.1035 17.766 23.4125 18.0742 23.7932 18.0742Z" fill="#828282"/>
<path d="M23.7932 22.0152C24.1739 22.0152 24.4829 21.707 24.4829 21.3255V19.3558C24.4829 18.9743 24.1739 18.6661 23.7932 18.6661C23.4125 18.6661 23.1035 18.9743 23.1035 19.3558V21.3255C23.1035 21.707 23.4125 22.0152 23.7932 22.0152Z" fill="#828282"/>
<path d="M23.7932 25.9561C24.1739 25.9561 24.4829 25.648 24.4829 25.2665V23.296C24.4829 22.9145 24.1739 22.6063 23.7932 22.6063C23.4125 22.6063 23.1035 22.9145 23.1035 23.296V25.2665C23.1035 25.648 23.4125 25.9561 23.7932 25.9561Z" fill="#828282"/>
<path d="M26.5519 18.0742C26.9325 18.0742 27.2415 17.766 27.2415 17.3845V15.414C27.2415 15.0325 26.9325 14.7244 26.5519 14.7244C26.1712 14.7244 25.8622 15.0325 25.8622 15.414V17.3845C25.8622 17.766 26.1712 18.0742 26.5519 18.0742Z" fill="#828282"/>
<path d="M26.5519 22.0152C26.9325 22.0152 27.2415 21.707 27.2415 21.3255V19.3558C27.2415 18.9743 26.9325 18.6661 26.5519 18.6661C26.1712 18.6661 25.8622 18.9743 25.8622 19.3558V21.3255C25.8622 21.707 26.1712 22.0152 26.5519 22.0152Z" fill="#828282"/>
<path d="M26.5519 25.9561C26.9325 25.9561 27.2415 25.648 27.2415 25.2665V23.296C27.2415 22.9145 26.9325 22.6063 26.5519 22.6063C26.1712 22.6063 25.8622 22.9145 25.8622 23.296V25.2665C25.8622 25.648 26.1712 25.9561 26.5519 25.9561Z" fill="#828282"/>
<path d="M26.5519 29.8971C26.9325 29.8971 27.2415 29.5889 27.2415 29.2074V27.2377C27.2415 26.8562 26.9325 26.548 26.5519 26.548C26.1712 26.548 25.8622 26.8562 25.8622 27.2377V29.2074C25.8622 29.5889 26.1712 29.8971 26.5519 29.8971Z" fill="#828282"/>
</svg>
