<svg width="36" height="32" viewBox="0 0 36 32" fill="none" xmlns="http://www.w3.org/2000/svg">
<path d="M35.8799 19.1468L29.6922 11.2717C29.5855 11.136 29.4222 11.0569 29.2499 11.0569H6.75011C6.57717 11.0569 6.41453 11.136 6.30781 11.2717L0.120179 19.1468C-0.0128953 19.3159 -0.0373244 19.5467 0.0565347 19.7402C0.149751 19.9337 0.347112 20.0571 0.562474 20.0571H1.6875V30.7449C1.6875 31.0554 1.93886 31.3074 2.25001 31.3074H33.7507C34.0618 31.3074 34.3132 31.0554 34.3132 30.7449V20.0565H35.4382C35.6536 20.0565 35.8503 19.9331 35.9442 19.7396C36.0374 19.5467 36.0129 19.3159 35.8799 19.1468ZM24.1873 30.1824H11.8121V20.0571H24.1873V30.1824ZM22.7891 18.9321H13.2103L7.90663 12.182H28.0921L22.7891 18.9321ZM5.62444 30.1824V26.8073H7.87449V30.1824H5.62444ZM8.99951 30.1824V26.2448C8.99951 25.9343 8.74815 25.6823 8.437 25.6823H5.06193C4.75078 25.6823 4.49941 25.9343 4.49941 26.2448V30.1824H2.81188V19.4946C2.81188 19.1841 2.56052 18.9321 2.24937 18.9321H1.719L6.74946 12.5291L11.7793 18.9315H11.2496C10.9384 18.9315 10.687 19.1835 10.687 19.494V30.1824H8.99951ZM28.1249 30.1824V26.8073H30.375V30.1824H28.1249ZM33.75 18.9321C33.4389 18.9321 33.1875 19.1841 33.1875 19.4946V30.1824H31.5V26.2448C31.5 25.9343 31.2486 25.6823 30.9375 25.6823H27.5624C27.2513 25.6823 26.9999 25.9343 26.9999 26.2448V30.1824H25.3124V19.4946C25.3124 19.1841 25.061 18.9321 24.7498 18.9321H24.2201L29.2499 12.5291L34.2798 18.9315H33.75V18.9321Z" fill="#828282"/>
<path d="M21.9373 21.7447H14.0621C13.7509 21.7447 13.4996 21.9967 13.4996 22.3072V27.9323C13.4996 28.2428 13.7509 28.4948 14.0621 28.4948H21.9373C22.2484 28.4948 22.4998 28.2428 22.4998 27.9323V22.3072C22.4998 21.9967 22.2478 21.7447 21.9373 21.7447ZM21.3747 24.5572H18.5622V22.8697H21.3747V24.5572ZM17.4372 22.8697V24.5572H14.6246V22.8697H17.4372ZM14.6246 25.6823H17.4372V27.3698H14.6246V25.6823ZM18.5622 27.3698V25.6823H21.3747V27.3698H18.5622Z" fill="#828282"/>
<path d="M28.6875 7.6819C29.6177 7.6819 30.375 8.4392 30.375 9.36943C30.375 9.67994 30.6263 9.93194 30.9375 9.93194C31.2486 9.93194 31.5 9.67994 31.5 9.36943C31.5 8.4392 32.2573 7.6819 33.1875 7.6819C33.4987 7.6819 33.7501 7.42989 33.7501 7.11938C33.7501 6.80888 33.4987 6.55687 33.1875 6.55687C32.2573 6.55687 31.5 5.79957 31.5 4.86934C31.5 4.55883 31.2486 4.30682 30.9375 4.30682C30.6263 4.30682 30.375 4.55883 30.375 4.86934C30.375 5.79957 29.6177 6.55687 28.6875 6.55687C28.3763 6.55687 28.1249 6.80888 28.1249 7.11938C28.1249 7.42989 28.3763 7.6819 28.6875 7.6819ZM30.9375 6.55494C31.0976 6.76838 31.2879 6.95867 31.5019 7.11938C31.2885 7.27946 31.0982 7.46975 30.9375 7.68382C30.7774 7.47039 30.5871 7.2801 30.3731 7.11938C30.5871 6.95931 30.7774 6.76838 30.9375 6.55494Z" fill="#828282"/>
<path d="M2.81193 7.6819C3.74217 7.6819 4.49947 8.4392 4.49947 9.36943C4.49947 9.67994 4.75083 9.93194 5.06198 9.93194C5.37313 9.93194 5.62449 9.67994 5.62449 9.36943C5.62449 8.4392 6.38179 7.6819 7.31203 7.6819C7.62318 7.6819 7.87454 7.42989 7.87454 7.11938C7.87454 6.80888 7.62318 6.55687 7.31203 6.55687C6.38179 6.55687 5.62449 5.79957 5.62449 4.86934C5.62449 4.55883 5.37313 4.30682 5.06198 4.30682C4.75083 4.30682 4.49947 4.55883 4.49947 4.86934C4.49947 5.79957 3.74217 6.55687 2.81193 6.55687C2.50078 6.55687 2.24942 6.80888 2.24942 7.11938C2.24942 7.42989 2.50078 7.6819 2.81193 7.6819ZM5.06198 6.55494C5.22205 6.76838 5.41234 6.95867 5.62642 7.11938C5.41299 7.27946 5.22205 7.46975 5.06198 7.68382C4.9019 7.47039 4.71162 7.27946 4.49754 7.11938C4.71162 6.95931 4.9019 6.76838 5.06198 6.55494Z" fill="#828282"/>
<path d="M22.4888 0.700317C20.8334 0.700317 19.3477 1.61319 18.5621 3.03522H12.3012C11.1338 3.03522 10.1791 3.99053 10.1791 5.15734C10.1791 6.32415 11.1344 7.27946 12.3012 7.27946H13.7869C14.1475 7.27946 14.4233 7.00367 14.4233 6.64302C14.4233 6.28236 14.1475 6.00657 13.7869 6.00657H12.3012C11.8345 6.00657 11.452 5.62471 11.452 5.15734C11.452 4.69062 11.8339 4.30811 12.3012 4.30811H18.9659C19.2204 4.30811 19.4538 4.15961 19.5599 3.92624C20.0478 2.73758 21.2153 1.97384 22.4888 1.97384C24.2503 1.97384 25.6723 3.39587 25.6723 5.15734C25.6723 6.91881 24.2503 8.34084 22.4888 8.34084C21.2153 8.34084 20.0478 7.57646 19.5599 6.38844C19.4538 6.15508 19.2204 6.00657 18.9659 6.00657H16.5461C16.1855 6.00657 15.9097 6.28236 15.9097 6.64302C15.9097 7.00367 16.1855 7.27946 16.5461 7.27946H18.5621C19.3265 8.70149 20.8334 9.61436 22.4888 9.61436C24.951 9.61436 26.9458 7.61954 26.9458 5.15734C26.9458 2.69515 24.951 0.700317 22.4888 0.700317Z" fill="#828282"/>
<path d="M23.1259 6.00657V4.30874C23.1259 3.94809 22.8501 3.6723 22.4894 3.6723C22.1288 3.6723 21.853 3.94809 21.853 4.30874V6.00657C21.853 6.36722 22.1288 6.64301 22.4894 6.64301C22.8494 6.64301 23.1259 6.36722 23.1259 6.00657Z" fill="#828282"/>
</svg>
