<svg width="112" height="16" viewBox="0 0 112 16" fill="none" xmlns="http://www.w3.org/2000/svg">
<path d="M80 11.3334L76.0814 13.7267L77.1467 9.26008L73.66 6.27341L78.2367 5.90675L80 1.66675L81.7634 5.90675L86.3407 6.27341L82.8534 9.26008L83.9187 13.7267L80 11.3334Z" fill="#0075FF"/>
<path d="M32 11.3334L28.0814 13.7267L29.1467 9.26008L25.66 6.27341L30.2367 5.90675L32 1.66675L33.7634 5.90675L38.3407 6.27341L34.8534 9.26008L35.9187 13.7267L32 11.3334Z" fill="#0075FF"/>
<path d="M56 11.3334L52.0814 13.7267L53.1467 9.26008L49.66 6.27341L54.2367 5.90675L56 1.66675L57.7634 5.90675L62.3407 6.27341L58.8534 9.26008L59.9187 13.7267L56 11.3334Z" fill="#0075FF"/>
<path d="M8.00003 11.3334L4.08137 13.7267L5.1467 9.26008L1.66003 6.27341L6.2367 5.90675L8.00003 1.66675L9.76337 5.90675L14.3407 6.27341L10.8534 9.26008L11.9187 13.7267L8.00003 11.3334Z" fill="#0075FF"/>
<path d="M104 11.3334L100.081 13.7267L101.147 9.26008L97.66 6.27341L102.237 5.90675L104 1.66675L105.763 5.90675L110.341 6.27341L106.853 9.26008L107.919 13.7267L104 11.3334ZM104 9.77075L105.878 10.9174L105.367 8.77742L107.039 7.34608L104.845 7.17008L104 5.13875L103.155 7.17008L100.961 7.34608L102.633 8.77742L102.122 10.9174L104 9.77141V9.77075Z" fill="#828282"/>
</svg>
