<svg width="112" height="16" viewBox="0 0 112 16" fill="none" xmlns="http://www.w3.org/2000/svg">
<g clip-path="url(#clip0_77_186)">
<path fill-rule="evenodd" clip-rule="evenodd" d="M8 0C3.58166 0 0 3.58166 0 8C0 12.4183 3.58166 16 8 16C12.4183 16 16 12.4183 16 8C16 3.58166 12.4183 0 8 0ZM12.8002 6.71108L10.1812 8.60621C10.062 8.69268 10.0141 8.83989 10.0597 8.97971L11.0645 12.0522C11.0873 12.1223 11.0635 12.1956 11.0041 12.2387C10.9446 12.2817 10.8675 12.2817 10.8077 12.2387L8.19639 10.3339C8.07746 10.2471 7.92254 10.2471 7.80361 10.3339L5.19201 12.239C5.13255 12.2824 5.05541 12.2824 4.99562 12.239C4.93616 12.1959 4.91237 12.1223 4.93519 12.0526L5.93997 8.98003C5.98594 8.83989 5.93805 8.69268 5.81847 8.60653L3.19949 6.7114C3.1397 6.66833 3.11591 6.59504 3.13874 6.52497C3.16156 6.4549 3.22391 6.40958 3.29752 6.4099L6.53011 6.41633C6.67733 6.41665 6.80268 6.32569 6.84801 6.18554L7.84089 3.10916C7.86339 3.03909 7.92575 2.99377 7.99936 2.99377C8.07296 2.99377 8.13532 3.03909 8.15782 3.10916L9.15103 6.18554C9.19635 6.32569 9.32139 6.41697 9.46892 6.41633L12.7015 6.4099C12.7751 6.4099 12.8375 6.45522 12.8603 6.52497C12.8834 6.5944 12.8597 6.66801 12.8002 6.71108Z" fill="#0075FF"/>
</g>
<g clip-path="url(#clip1_77_186)">
<path fill-rule="evenodd" clip-rule="evenodd" d="M56 0C51.5817 0 48 3.58166 48 8C48 12.4183 51.5817 16 56 16C60.4183 16 64 12.4183 64 8C64 3.58166 60.4183 0 56 0ZM60.8002 6.71108L58.1812 8.60621C58.062 8.69268 58.0141 8.83989 58.0597 8.97971L59.0645 12.0522C59.0873 12.1223 59.0635 12.1956 59.0041 12.2387C58.9446 12.2817 58.8675 12.2817 58.8077 12.2387L56.1964 10.3339C56.0775 10.2471 55.9225 10.2471 55.8036 10.3339L53.192 12.239C53.1325 12.2824 53.0554 12.2824 52.9956 12.239C52.9362 12.1959 52.9124 12.1223 52.9352 12.0526L53.94 8.98003C53.9859 8.83989 53.938 8.69268 53.8185 8.60653L51.1995 6.7114C51.1397 6.66833 51.1159 6.59504 51.1387 6.52497C51.1616 6.4549 51.2239 6.40958 51.2975 6.4099L54.5301 6.41633C54.6773 6.41665 54.8027 6.32569 54.848 6.18554L55.8409 3.10916C55.8634 3.03909 55.9258 2.99377 55.9994 2.99377C56.073 2.99377 56.1353 3.03909 56.1578 3.10916L57.151 6.18554C57.1964 6.32569 57.3214 6.41697 57.4689 6.41633L60.7015 6.4099C60.7751 6.4099 60.8375 6.45522 60.8603 6.52497C60.8834 6.5944 60.8597 6.66801 60.8002 6.71108Z" fill="#0075FF"/>
</g>
<g clip-path="url(#clip2_77_186)">
<path fill-rule="evenodd" clip-rule="evenodd" d="M32 0C27.5817 0 24 3.58166 24 8C24 12.4183 27.5817 16 32 16C36.4183 16 40 12.4183 40 8C40 3.58166 36.4183 0 32 0ZM36.8002 6.71108L34.1812 8.60621C34.062 8.69268 34.0141 8.83989 34.0597 8.97971L35.0645 12.0522C35.0873 12.1223 35.0635 12.1956 35.0041 12.2387C34.9446 12.2817 34.8675 12.2817 34.8077 12.2387L32.1964 10.3339C32.0775 10.2471 31.9225 10.2471 31.8036 10.3339L29.192 12.239C29.1325 12.2824 29.0554 12.2824 28.9956 12.239C28.9362 12.1959 28.9124 12.1223 28.9352 12.0526L29.94 8.98003C29.9859 8.83989 29.938 8.69268 29.8185 8.60653L27.1995 6.7114C27.1397 6.66833 27.1159 6.59504 27.1387 6.52497C27.1616 6.4549 27.2239 6.40958 27.2975 6.4099L30.5301 6.41633C30.6773 6.41665 30.8027 6.32569 30.848 6.18554L31.8409 3.10916C31.8634 3.03909 31.9258 2.99377 31.9994 2.99377C32.073 2.99377 32.1353 3.03909 32.1578 3.10916L33.151 6.18554C33.1964 6.32569 33.3214 6.41697 33.4689 6.41633L36.7015 6.4099C36.7751 6.4099 36.8375 6.45522 36.8603 6.52497C36.8834 6.5944 36.8597 6.66801 36.8002 6.71108Z" fill="#0075FF"/>
</g>
<g clip-path="url(#clip3_77_186)">
<path fill-rule="evenodd" clip-rule="evenodd" d="M80 0C75.5817 0 72 3.58166 72 8C72 12.4183 75.5817 16 80 16C84.4183 16 88 12.4183 88 8C88 3.58166 84.4183 0 80 0ZM84.8002 6.71108L82.1812 8.60621C82.062 8.69268 82.0141 8.83989 82.0597 8.97971L83.0645 12.0522C83.0873 12.1223 83.0635 12.1956 83.0041 12.2387C82.9446 12.2817 82.8675 12.2817 82.8077 12.2387L80.1964 10.3339C80.0775 10.2471 79.9225 10.2471 79.8036 10.3339L77.192 12.239C77.1325 12.2824 77.0554 12.2824 76.9956 12.239C76.9362 12.1959 76.9124 12.1223 76.9352 12.0526L77.94 8.98003C77.9859 8.83989 77.938 8.69268 77.8185 8.60653L75.1995 6.7114C75.1397 6.66833 75.1159 6.59504 75.1387 6.52497C75.1616 6.4549 75.2239 6.40958 75.2975 6.4099L78.5301 6.41633C78.6773 6.41665 78.8027 6.32569 78.848 6.18554L79.8409 3.10916C79.8634 3.03909 79.9258 2.99377 79.9994 2.99377C80.073 2.99377 80.1353 3.03909 80.1578 3.10916L81.151 6.18554C81.1964 6.32569 81.3214 6.41697 81.4689 6.41633L84.7015 6.4099C84.7751 6.4099 84.8375 6.45522 84.8603 6.52497C84.8834 6.5944 84.8597 6.66801 84.8002 6.71108Z" fill="#0075FF"/>
</g>
<g clip-path="url(#clip4_77_186)">
<path fill-rule="evenodd" clip-rule="evenodd" d="M104 0C99.5817 0 96 3.58166 96 8C96 12.4183 99.5817 16 104 16C108.418 16 112 12.4183 112 8C112 3.58166 108.418 0 104 0ZM108.8 6.71108L106.181 8.60621C106.062 8.69268 106.014 8.83989 106.06 8.97971L107.064 12.0522C107.087 12.1223 107.064 12.1956 107.004 12.2387C106.945 12.2817 106.867 12.2817 106.808 12.2387L104.196 10.3339C104.077 10.2471 103.923 10.2471 103.804 10.3339L101.192 12.239C101.133 12.2824 101.055 12.2824 100.996 12.239C100.936 12.1959 100.912 12.1223 100.935 12.0526L101.94 8.98003C101.986 8.83989 101.938 8.69268 101.818 8.60653L99.1995 6.7114C99.1397 6.66833 99.1159 6.59504 99.1387 6.52497C99.1616 6.4549 99.2239 6.40958 99.2975 6.4099L102.53 6.41633C102.677 6.41665 102.803 6.32569 102.848 6.18554L103.841 3.10916C103.863 3.03909 103.926 2.99377 103.999 2.99377C104.073 2.99377 104.135 3.03909 104.158 3.10916L105.151 6.18554C105.196 6.32569 105.321 6.41697 105.469 6.41633L108.702 6.4099C108.775 6.4099 108.837 6.45522 108.86 6.52497C108.883 6.5944 108.86 6.66801 108.8 6.71108Z" fill="#0075FF"/>
</g>
<defs>
<clipPath id="clip0_77_186">
<rect width="16" height="16" fill="white"/>
</clipPath>
<clipPath id="clip1_77_186">
<rect width="16" height="16" fill="white" transform="translate(48)"/>
</clipPath>
<clipPath id="clip2_77_186">
<rect width="16" height="16" fill="white" transform="translate(24)"/>
</clipPath>
<clipPath id="clip3_77_186">
<rect width="16" height="16" fill="white" transform="translate(72)"/>
</clipPath>
<clipPath id="clip4_77_186">
<rect width="16" height="16" fill="white" transform="translate(96)"/>
</clipPath>
</defs>
</svg>
