<svg width="24" height="24" viewBox="0 0 24 24" fill="none" xmlns="http://www.w3.org/2000/svg">
<path d="M20.7386 7.48592C20.7526 7.68279 20.7526 7.87969 20.7526 8.07656C20.7526 14.0812 16.2158 21 7.92388 21C5.36929 21 2.99621 20.2547 1 18.961C1.36296 19.0031 1.71191 19.0172 2.08883 19.0172C4.19667 19.0172 6.13706 18.3 7.68656 17.0766C5.70432 17.0344 4.04314 15.7266 3.4708 13.9266C3.75001 13.9687 4.02918 13.9969 4.32236 13.9969C4.72717 13.9969 5.13202 13.9406 5.5089 13.8422C3.44291 13.4203 1.89337 11.5922 1.89337 9.38437V9.32814C2.4936 9.66564 3.19163 9.87657 3.93143 9.90467C2.71695 9.08902 1.9213 7.69685 1.9213 6.12184C1.9213 5.27811 2.14461 4.50467 2.53549 3.82967C4.75505 6.58591 8.09138 8.38588 11.8325 8.58279C11.7627 8.24529 11.7208 7.89376 11.7208 7.54219C11.7208 5.03904 13.731 3 16.2297 3C17.5279 3 18.7005 3.54844 19.5241 4.43437C20.5431 4.23751 21.5203 3.8578 22.3858 3.3375C22.0507 4.39221 21.3388 5.27815 20.4036 5.84061C21.3109 5.74222 22.1904 5.48904 23 5.13752C22.3859 6.03748 21.6181 6.83901 20.7386 7.48592Z" fill="#3D3D3D"/>
</svg>
