<svg width="24" height="24" viewBox="0 0 24 24" fill="none" xmlns="http://www.w3.org/2000/svg">
<path d="M13.6113 12.5L11.2667 14.0914V10.9086L13.6113 12.5Z" fill="#3D3D3D"/>
<path fill-rule="evenodd" clip-rule="evenodd" d="M3.20895 3.94821C9.00387 2.68393 14.9961 2.68393 20.791 3.94821C22.0795 4.22931 23 5.3886 23 6.73019V18.2698C23 19.6114 22.0795 20.7707 20.791 21.0518C14.9961 22.3161 9.00387 22.3161 3.20895 21.0518C1.9205 20.7707 1 19.6114 1 18.2698V6.73019C1 5.3886 1.9205 4.22931 3.20895 3.94821ZM10.9401 8.89226C10.7151 8.73952 10.4258 8.72528 10.1873 8.85521C9.94886 8.98513 9.8 9.23814 9.8 9.51349V15.4865C9.8 15.7619 9.94886 16.0149 10.1873 16.1448C10.4258 16.2747 10.7151 16.2605 10.9401 16.1077L15.3401 13.1212C15.5441 12.9828 15.6667 12.7496 15.6667 12.5C15.6667 12.2504 15.5441 12.0172 15.3401 11.8788L10.9401 8.89226Z" fill="#3D3D3D"/>
</svg>
